<?xml version="1.0" encoding="utf-8" standalone="no"?>
<!DOCTYPE svg PUBLIC "-//W3C//DTD SVG 1.1//EN"
  "http://www.w3.org/Graphics/SVG/1.1/DTD/svg11.dtd">
<svg xmlns:xlink="http://www.w3.org/1999/xlink" width="460.8pt" height="345.6pt" viewBox="0 0 460.8 345.6" xmlns="http://www.w3.org/2000/svg" version="1.1">
 <metadata>
  <rdf:RDF xmlns:dc="http://purl.org/dc/elements/1.1/" xmlns:cc="http://creativecommons.org/ns#" xmlns:rdf="http://www.w3.org/1999/02/22-rdf-syntax-ns#">
   <cc:Work>
    <dc:type rdf:resource="http://purl.org/dc/dcmitype/StillImage"/>
    <dc:date>2024-09-06T16:39:29.511453</dc:date>
    <dc:format>image/svg+xml</dc:format>
    <dc:creator>
     <cc:Agent>
      <dc:title>Matplotlib v3.9.2, https://matplotlib.org/</dc:title>
     </cc:Agent>
    </dc:creator>
   </cc:Work>
  </rdf:RDF>
 </metadata>
 <defs>
  <style type="text/css">*{stroke-linejoin: round; stroke-linecap: butt}</style>
 </defs>
 <g id="figure_1">
  <g id="patch_1">
   <path d="M 0 345.6 
L 460.8 345.6 
L 460.8 0 
L 0 0 
z
" style="fill: #ffffff"/>
  </g>
  <g id="axes_1">
   <g id="patch_2">
    <path d="M 57.6 307.584 
L 414.72 307.584 
L 414.72 41.472 
L 57.6 41.472 
z
" style="fill: #ffffff"/>
   </g>
   <g id="matplotlib.axis_1">
    <g id="xtick_1">
     <g id="line2d_1">
      <path d="M 83.714231 307.584 
L 83.714231 41.472 
" clip-path="url(#p7337430fff)" style="fill: none; stroke: #b0b0b0; stroke-width: 0.8; stroke-linecap: square"/>
     </g>
     <g id="line2d_2">
      <defs>
       <path id="md7c4573a09" d="M 0 0 
L 0 3.5 
" style="stroke: #000000; stroke-width: 0.8"/>
      </defs>
      <g>
       <use xlink:href="#md7c4573a09" x="83.714231" y="307.584" style="stroke: #000000; stroke-width: 0.8"/>
      </g>
     </g>
     <g id="text_1">
      <!-- −1500 -->
      <g transform="translate(66.799388 322.182437) scale(0.1 -0.1)">
       <defs>
        <path id="DejaVuSans-2212" d="M 678 2272 
L 4684 2272 
L 4684 1741 
L 678 1741 
L 678 2272 
z
" transform="scale(0.015625)"/>
        <path id="DejaVuSans-31" d="M 794 531 
L 1825 531 
L 1825 4091 
L 703 3866 
L 703 4441 
L 1819 4666 
L 2450 4666 
L 2450 531 
L 3481 531 
L 3481 0 
L 794 0 
L 794 531 
z
" transform="scale(0.015625)"/>
        <path id="DejaVuSans-35" d="M 691 4666 
L 3169 4666 
L 3169 4134 
L 1269 4134 
L 1269 2991 
Q 1406 3038 1543 3061 
Q 1681 3084 1819 3084 
Q 2600 3084 3056 2656 
Q 3513 2228 3513 1497 
Q 3513 744 3044 326 
Q 2575 -91 1722 -91 
Q 1428 -91 1123 -41 
Q 819 9 494 109 
L 494 744 
Q 775 591 1075 516 
Q 1375 441 1709 441 
Q 2250 441 2565 725 
Q 2881 1009 2881 1497 
Q 2881 1984 2565 2268 
Q 2250 2553 1709 2553 
Q 1456 2553 1204 2497 
Q 953 2441 691 2322 
L 691 4666 
z
" transform="scale(0.015625)"/>
        <path id="DejaVuSans-30" d="M 2034 4250 
Q 1547 4250 1301 3770 
Q 1056 3291 1056 2328 
Q 1056 1369 1301 889 
Q 1547 409 2034 409 
Q 2525 409 2770 889 
Q 3016 1369 3016 2328 
Q 3016 3291 2770 3770 
Q 2525 4250 2034 4250 
z
M 2034 4750 
Q 2819 4750 3233 4129 
Q 3647 3509 3647 2328 
Q 3647 1150 3233 529 
Q 2819 -91 2034 -91 
Q 1250 -91 836 529 
Q 422 1150 422 2328 
Q 422 3509 836 4129 
Q 1250 4750 2034 4750 
z
" transform="scale(0.015625)"/>
       </defs>
       <use xlink:href="#DejaVuSans-2212"/>
       <use xlink:href="#DejaVuSans-31" x="83.789062"/>
       <use xlink:href="#DejaVuSans-35" x="147.412109"/>
       <use xlink:href="#DejaVuSans-30" x="211.035156"/>
       <use xlink:href="#DejaVuSans-30" x="274.658203"/>
      </g>
     </g>
    </g>
    <g id="xtick_2">
     <g id="line2d_3">
      <path d="M 131.285128 307.584 
L 131.285128 41.472 
" clip-path="url(#p7337430fff)" style="fill: none; stroke: #b0b0b0; stroke-width: 0.8; stroke-linecap: square"/>
     </g>
     <g id="line2d_4">
      <g>
       <use xlink:href="#md7c4573a09" x="131.285128" y="307.584" style="stroke: #000000; stroke-width: 0.8"/>
      </g>
     </g>
     <g id="text_2">
      <!-- −1000 -->
      <g transform="translate(114.370284 322.182437) scale(0.1 -0.1)">
       <use xlink:href="#DejaVuSans-2212"/>
       <use xlink:href="#DejaVuSans-31" x="83.789062"/>
       <use xlink:href="#DejaVuSans-30" x="147.412109"/>
       <use xlink:href="#DejaVuSans-30" x="211.035156"/>
       <use xlink:href="#DejaVuSans-30" x="274.658203"/>
      </g>
     </g>
    </g>
    <g id="xtick_3">
     <g id="line2d_5">
      <path d="M 178.856025 307.584 
L 178.856025 41.472 
" clip-path="url(#p7337430fff)" style="fill: none; stroke: #b0b0b0; stroke-width: 0.8; stroke-linecap: square"/>
     </g>
     <g id="line2d_6">
      <g>
       <use xlink:href="#md7c4573a09" x="178.856025" y="307.584" style="stroke: #000000; stroke-width: 0.8"/>
      </g>
     </g>
     <g id="text_3">
      <!-- −500 -->
      <g transform="translate(165.122431 322.182437) scale(0.1 -0.1)">
       <use xlink:href="#DejaVuSans-2212"/>
       <use xlink:href="#DejaVuSans-35" x="83.789062"/>
       <use xlink:href="#DejaVuSans-30" x="147.412109"/>
       <use xlink:href="#DejaVuSans-30" x="211.035156"/>
      </g>
     </g>
    </g>
    <g id="xtick_4">
     <g id="line2d_7">
      <path d="M 226.426921 307.584 
L 226.426921 41.472 
" clip-path="url(#p7337430fff)" style="fill: none; stroke: #b0b0b0; stroke-width: 0.8; stroke-linecap: square"/>
     </g>
     <g id="line2d_8">
      <g>
       <use xlink:href="#md7c4573a09" x="226.426921" y="307.584" style="stroke: #000000; stroke-width: 0.8"/>
      </g>
     </g>
     <g id="text_4">
      <!-- 0 -->
      <g transform="translate(223.245671 322.182437) scale(0.1 -0.1)">
       <use xlink:href="#DejaVuSans-30"/>
      </g>
     </g>
    </g>
    <g id="xtick_5">
     <g id="line2d_9">
      <path d="M 273.997818 307.584 
L 273.997818 41.472 
" clip-path="url(#p7337430fff)" style="fill: none; stroke: #b0b0b0; stroke-width: 0.8; stroke-linecap: square"/>
     </g>
     <g id="line2d_10">
      <g>
       <use xlink:href="#md7c4573a09" x="273.997818" y="307.584" style="stroke: #000000; stroke-width: 0.8"/>
      </g>
     </g>
     <g id="text_5">
      <!-- 500 -->
      <g transform="translate(264.454068 322.182437) scale(0.1 -0.1)">
       <use xlink:href="#DejaVuSans-35"/>
       <use xlink:href="#DejaVuSans-30" x="63.623047"/>
       <use xlink:href="#DejaVuSans-30" x="127.246094"/>
      </g>
     </g>
    </g>
    <g id="xtick_6">
     <g id="line2d_11">
      <path d="M 321.568715 307.584 
L 321.568715 41.472 
" clip-path="url(#p7337430fff)" style="fill: none; stroke: #b0b0b0; stroke-width: 0.8; stroke-linecap: square"/>
     </g>
     <g id="line2d_12">
      <g>
       <use xlink:href="#md7c4573a09" x="321.568715" y="307.584" style="stroke: #000000; stroke-width: 0.8"/>
      </g>
     </g>
     <g id="text_6">
      <!-- 1000 -->
      <g transform="translate(308.843715 322.182437) scale(0.1 -0.1)">
       <use xlink:href="#DejaVuSans-31"/>
       <use xlink:href="#DejaVuSans-30" x="63.623047"/>
       <use xlink:href="#DejaVuSans-30" x="127.246094"/>
       <use xlink:href="#DejaVuSans-30" x="190.869141"/>
      </g>
     </g>
    </g>
    <g id="xtick_7">
     <g id="line2d_13">
      <path d="M 369.139611 307.584 
L 369.139611 41.472 
" clip-path="url(#p7337430fff)" style="fill: none; stroke: #b0b0b0; stroke-width: 0.8; stroke-linecap: square"/>
     </g>
     <g id="line2d_14">
      <g>
       <use xlink:href="#md7c4573a09" x="369.139611" y="307.584" style="stroke: #000000; stroke-width: 0.8"/>
      </g>
     </g>
     <g id="text_7">
      <!-- 1500 -->
      <g transform="translate(356.414611 322.182437) scale(0.1 -0.1)">
       <use xlink:href="#DejaVuSans-31"/>
       <use xlink:href="#DejaVuSans-35" x="63.623047"/>
       <use xlink:href="#DejaVuSans-30" x="127.246094"/>
       <use xlink:href="#DejaVuSans-30" x="190.869141"/>
      </g>
     </g>
    </g>
    <g id="text_8">
     <!-- NPV value (€ mil) -->
     <g transform="translate(192.827969 335.860562) scale(0.1 -0.1)">
      <defs>
       <path id="DejaVuSans-4e" d="M 628 4666 
L 1478 4666 
L 3547 763 
L 3547 4666 
L 4159 4666 
L 4159 0 
L 3309 0 
L 1241 3903 
L 1241 0 
L 628 0 
L 628 4666 
z
" transform="scale(0.015625)"/>
       <path id="DejaVuSans-50" d="M 1259 4147 
L 1259 2394 
L 2053 2394 
Q 2494 2394 2734 2622 
Q 2975 2850 2975 3272 
Q 2975 3691 2734 3919 
Q 2494 4147 2053 4147 
L 1259 4147 
z
M 628 4666 
L 2053 4666 
Q 2838 4666 3239 4311 
Q 3641 3956 3641 3272 
Q 3641 2581 3239 2228 
Q 2838 1875 2053 1875 
L 1259 1875 
L 1259 0 
L 628 0 
L 628 4666 
z
" transform="scale(0.015625)"/>
       <path id="DejaVuSans-56" d="M 1831 0 
L 50 4666 
L 709 4666 
L 2188 738 
L 3669 4666 
L 4325 4666 
L 2547 0 
L 1831 0 
z
" transform="scale(0.015625)"/>
       <path id="DejaVuSans-20" transform="scale(0.015625)"/>
       <path id="DejaVuSans-76" d="M 191 3500 
L 800 3500 
L 1894 563 
L 2988 3500 
L 3597 3500 
L 2284 0 
L 1503 0 
L 191 3500 
z
" transform="scale(0.015625)"/>
       <path id="DejaVuSans-61" d="M 2194 1759 
Q 1497 1759 1228 1600 
Q 959 1441 959 1056 
Q 959 750 1161 570 
Q 1363 391 1709 391 
Q 2188 391 2477 730 
Q 2766 1069 2766 1631 
L 2766 1759 
L 2194 1759 
z
M 3341 1997 
L 3341 0 
L 2766 0 
L 2766 531 
Q 2569 213 2275 61 
Q 1981 -91 1556 -91 
Q 1019 -91 701 211 
Q 384 513 384 1019 
Q 384 1609 779 1909 
Q 1175 2209 1959 2209 
L 2766 2209 
L 2766 2266 
Q 2766 2663 2505 2880 
Q 2244 3097 1772 3097 
Q 1472 3097 1187 3025 
Q 903 2953 641 2809 
L 641 3341 
Q 956 3463 1253 3523 
Q 1550 3584 1831 3584 
Q 2591 3584 2966 3190 
Q 3341 2797 3341 1997 
z
" transform="scale(0.015625)"/>
       <path id="DejaVuSans-6c" d="M 603 4863 
L 1178 4863 
L 1178 0 
L 603 0 
L 603 4863 
z
" transform="scale(0.015625)"/>
       <path id="DejaVuSans-75" d="M 544 1381 
L 544 3500 
L 1119 3500 
L 1119 1403 
Q 1119 906 1312 657 
Q 1506 409 1894 409 
Q 2359 409 2629 706 
Q 2900 1003 2900 1516 
L 2900 3500 
L 3475 3500 
L 3475 0 
L 2900 0 
L 2900 538 
Q 2691 219 2414 64 
Q 2138 -91 1772 -91 
Q 1169 -91 856 284 
Q 544 659 544 1381 
z
M 1991 3584 
L 1991 3584 
z
" transform="scale(0.015625)"/>
       <path id="DejaVuSans-65" d="M 3597 1894 
L 3597 1613 
L 953 1613 
Q 991 1019 1311 708 
Q 1631 397 2203 397 
Q 2534 397 2845 478 
Q 3156 559 3463 722 
L 3463 178 
Q 3153 47 2828 -22 
Q 2503 -91 2169 -91 
Q 1331 -91 842 396 
Q 353 884 353 1716 
Q 353 2575 817 3079 
Q 1281 3584 2069 3584 
Q 2775 3584 3186 3129 
Q 3597 2675 3597 1894 
z
M 3022 2063 
Q 3016 2534 2758 2815 
Q 2500 3097 2075 3097 
Q 1594 3097 1305 2825 
Q 1016 2553 972 2059 
L 3022 2063 
z
" transform="scale(0.015625)"/>
       <path id="DejaVuSans-28" d="M 1984 4856 
Q 1566 4138 1362 3434 
Q 1159 2731 1159 2009 
Q 1159 1288 1364 580 
Q 1569 -128 1984 -844 
L 1484 -844 
Q 1016 -109 783 600 
Q 550 1309 550 2009 
Q 550 2706 781 3412 
Q 1013 4119 1484 4856 
L 1984 4856 
z
" transform="scale(0.015625)"/>
       <path id="DejaVuSans-20ac" d="M 3647 4306 
L 3647 3641 
Q 3363 3969 3098 4109 
Q 2834 4250 2516 4250 
Q 2025 4250 1709 3937 
Q 1394 3625 1294 3041 
L 3097 3041 
L 2925 2656 
L 1244 2656 
Q 1238 2581 1236 2509 
Q 1234 2438 1234 2328 
Q 1234 2228 1236 2156 
Q 1238 2084 1244 2009 
L 2638 2009 
L 2463 1625 
L 1294 1625 
Q 1394 1041 1709 725 
Q 2025 409 2516 409 
Q 2834 409 3098 550 
Q 3363 691 3647 1019 
L 3647 359 
Q 3369 134 3080 21 
Q 2791 -91 2491 -91 
Q 1750 -91 1267 362 
Q 784 816 659 1625 
L 0 1625 
L 172 2009 
L 606 2009 
Q 606 2081 604 2154 
Q 603 2228 603 2328 
Q 603 2438 604 2511 
Q 606 2584 606 2656 
L 0 2656 
L 172 3041 
L 659 3041 
Q 784 3844 1268 4297 
Q 1753 4750 2491 4750 
Q 2797 4750 3086 4639 
Q 3375 4528 3647 4306 
z
" transform="scale(0.015625)"/>
       <path id="DejaVuSans-6d" d="M 3328 2828 
Q 3544 3216 3844 3400 
Q 4144 3584 4550 3584 
Q 5097 3584 5394 3201 
Q 5691 2819 5691 2113 
L 5691 0 
L 5113 0 
L 5113 2094 
Q 5113 2597 4934 2840 
Q 4756 3084 4391 3084 
Q 3944 3084 3684 2787 
Q 3425 2491 3425 1978 
L 3425 0 
L 2847 0 
L 2847 2094 
Q 2847 2600 2669 2842 
Q 2491 3084 2119 3084 
Q 1678 3084 1418 2786 
Q 1159 2488 1159 1978 
L 1159 0 
L 581 0 
L 581 3500 
L 1159 3500 
L 1159 2956 
Q 1356 3278 1631 3431 
Q 1906 3584 2284 3584 
Q 2666 3584 2933 3390 
Q 3200 3197 3328 2828 
z
" transform="scale(0.015625)"/>
       <path id="DejaVuSans-69" d="M 603 3500 
L 1178 3500 
L 1178 0 
L 603 0 
L 603 3500 
z
M 603 4863 
L 1178 4863 
L 1178 4134 
L 603 4134 
L 603 4863 
z
" transform="scale(0.015625)"/>
       <path id="DejaVuSans-29" d="M 513 4856 
L 1013 4856 
Q 1481 4119 1714 3412 
Q 1947 2706 1947 2009 
Q 1947 1309 1714 600 
Q 1481 -109 1013 -844 
L 513 -844 
Q 928 -128 1133 580 
Q 1338 1288 1338 2009 
Q 1338 2731 1133 3434 
Q 928 4138 513 4856 
z
" transform="scale(0.015625)"/>
      </defs>
      <use xlink:href="#DejaVuSans-4e"/>
      <use xlink:href="#DejaVuSans-50" x="74.804688"/>
      <use xlink:href="#DejaVuSans-56" x="135.107422"/>
      <use xlink:href="#DejaVuSans-20" x="203.515625"/>
      <use xlink:href="#DejaVuSans-76" x="235.302734"/>
      <use xlink:href="#DejaVuSans-61" x="294.482422"/>
      <use xlink:href="#DejaVuSans-6c" x="355.761719"/>
      <use xlink:href="#DejaVuSans-75" x="383.544922"/>
      <use xlink:href="#DejaVuSans-65" x="446.923828"/>
      <use xlink:href="#DejaVuSans-20" x="508.447266"/>
      <use xlink:href="#DejaVuSans-28" x="540.234375"/>
      <use xlink:href="#DejaVuSans-20ac" x="579.248047"/>
      <use xlink:href="#DejaVuSans-20" x="642.871094"/>
      <use xlink:href="#DejaVuSans-6d" x="674.658203"/>
      <use xlink:href="#DejaVuSans-69" x="772.070312"/>
      <use xlink:href="#DejaVuSans-6c" x="799.853516"/>
      <use xlink:href="#DejaVuSans-29" x="827.636719"/>
     </g>
    </g>
   </g>
   <g id="matplotlib.axis_2">
    <g id="ytick_1">
     <g id="line2d_15">
      <path d="M 57.6 295.488 
L 414.72 295.488 
" clip-path="url(#p7337430fff)" style="fill: none; stroke: #b0b0b0; stroke-width: 0.8; stroke-linecap: square"/>
     </g>
     <g id="line2d_16">
      <defs>
       <path id="m1ca894c6bf" d="M 0 0 
L -3.5 0 
" style="stroke: #000000; stroke-width: 0.8"/>
      </defs>
      <g>
       <use xlink:href="#m1ca894c6bf" x="57.6" y="295.488" style="stroke: #000000; stroke-width: 0.8"/>
      </g>
     </g>
     <g id="text_9">
      <!-- 0.000 -->
      <g transform="translate(21.971875 299.287219) scale(0.1 -0.1)">
       <defs>
        <path id="DejaVuSans-2e" d="M 684 794 
L 1344 794 
L 1344 0 
L 684 0 
L 684 794 
z
" transform="scale(0.015625)"/>
       </defs>
       <use xlink:href="#DejaVuSans-30"/>
       <use xlink:href="#DejaVuSans-2e" x="63.623047"/>
       <use xlink:href="#DejaVuSans-30" x="95.410156"/>
       <use xlink:href="#DejaVuSans-30" x="159.033203"/>
       <use xlink:href="#DejaVuSans-30" x="222.65625"/>
      </g>
     </g>
    </g>
    <g id="ytick_2">
     <g id="line2d_17">
      <path d="M 57.6 259.2 
L 414.72 259.2 
" clip-path="url(#p7337430fff)" style="fill: none; stroke: #b0b0b0; stroke-width: 0.8; stroke-linecap: square"/>
     </g>
     <g id="line2d_18">
      <g>
       <use xlink:href="#m1ca894c6bf" x="57.6" y="259.2" style="stroke: #000000; stroke-width: 0.8"/>
      </g>
     </g>
     <g id="text_10">
      <!-- 0.005 -->
      <g transform="translate(21.971875 262.999219) scale(0.1 -0.1)">
       <use xlink:href="#DejaVuSans-30"/>
       <use xlink:href="#DejaVuSans-2e" x="63.623047"/>
       <use xlink:href="#DejaVuSans-30" x="95.410156"/>
       <use xlink:href="#DejaVuSans-30" x="159.033203"/>
       <use xlink:href="#DejaVuSans-35" x="222.65625"/>
      </g>
     </g>
    </g>
    <g id="ytick_3">
     <g id="line2d_19">
      <path d="M 57.6 222.912 
L 414.72 222.912 
" clip-path="url(#p7337430fff)" style="fill: none; stroke: #b0b0b0; stroke-width: 0.8; stroke-linecap: square"/>
     </g>
     <g id="line2d_20">
      <g>
       <use xlink:href="#m1ca894c6bf" x="57.6" y="222.912" style="stroke: #000000; stroke-width: 0.8"/>
      </g>
     </g>
     <g id="text_11">
      <!-- 0.010 -->
      <g transform="translate(21.971875 226.711219) scale(0.1 -0.1)">
       <use xlink:href="#DejaVuSans-30"/>
       <use xlink:href="#DejaVuSans-2e" x="63.623047"/>
       <use xlink:href="#DejaVuSans-30" x="95.410156"/>
       <use xlink:href="#DejaVuSans-31" x="159.033203"/>
       <use xlink:href="#DejaVuSans-30" x="222.65625"/>
      </g>
     </g>
    </g>
    <g id="ytick_4">
     <g id="line2d_21">
      <path d="M 57.6 186.624 
L 414.72 186.624 
" clip-path="url(#p7337430fff)" style="fill: none; stroke: #b0b0b0; stroke-width: 0.8; stroke-linecap: square"/>
     </g>
     <g id="line2d_22">
      <g>
       <use xlink:href="#m1ca894c6bf" x="57.6" y="186.624" style="stroke: #000000; stroke-width: 0.8"/>
      </g>
     </g>
     <g id="text_12">
      <!-- 0.015 -->
      <g transform="translate(21.971875 190.423219) scale(0.1 -0.1)">
       <use xlink:href="#DejaVuSans-30"/>
       <use xlink:href="#DejaVuSans-2e" x="63.623047"/>
       <use xlink:href="#DejaVuSans-30" x="95.410156"/>
       <use xlink:href="#DejaVuSans-31" x="159.033203"/>
       <use xlink:href="#DejaVuSans-35" x="222.65625"/>
      </g>
     </g>
    </g>
    <g id="ytick_5">
     <g id="line2d_23">
      <path d="M 57.6 150.336 
L 414.72 150.336 
" clip-path="url(#p7337430fff)" style="fill: none; stroke: #b0b0b0; stroke-width: 0.8; stroke-linecap: square"/>
     </g>
     <g id="line2d_24">
      <g>
       <use xlink:href="#m1ca894c6bf" x="57.6" y="150.336" style="stroke: #000000; stroke-width: 0.8"/>
      </g>
     </g>
     <g id="text_13">
      <!-- 0.020 -->
      <g transform="translate(21.971875 154.135219) scale(0.1 -0.1)">
       <defs>
        <path id="DejaVuSans-32" d="M 1228 531 
L 3431 531 
L 3431 0 
L 469 0 
L 469 531 
Q 828 903 1448 1529 
Q 2069 2156 2228 2338 
Q 2531 2678 2651 2914 
Q 2772 3150 2772 3378 
Q 2772 3750 2511 3984 
Q 2250 4219 1831 4219 
Q 1534 4219 1204 4116 
Q 875 4013 500 3803 
L 500 4441 
Q 881 4594 1212 4672 
Q 1544 4750 1819 4750 
Q 2544 4750 2975 4387 
Q 3406 4025 3406 3419 
Q 3406 3131 3298 2873 
Q 3191 2616 2906 2266 
Q 2828 2175 2409 1742 
Q 1991 1309 1228 531 
z
" transform="scale(0.015625)"/>
       </defs>
       <use xlink:href="#DejaVuSans-30"/>
       <use xlink:href="#DejaVuSans-2e" x="63.623047"/>
       <use xlink:href="#DejaVuSans-30" x="95.410156"/>
       <use xlink:href="#DejaVuSans-32" x="159.033203"/>
       <use xlink:href="#DejaVuSans-30" x="222.65625"/>
      </g>
     </g>
    </g>
    <g id="ytick_6">
     <g id="line2d_25">
      <path d="M 57.6 114.048 
L 414.72 114.048 
" clip-path="url(#p7337430fff)" style="fill: none; stroke: #b0b0b0; stroke-width: 0.8; stroke-linecap: square"/>
     </g>
     <g id="line2d_26">
      <g>
       <use xlink:href="#m1ca894c6bf" x="57.6" y="114.048" style="stroke: #000000; stroke-width: 0.8"/>
      </g>
     </g>
     <g id="text_14">
      <!-- 0.025 -->
      <g transform="translate(21.971875 117.847219) scale(0.1 -0.1)">
       <use xlink:href="#DejaVuSans-30"/>
       <use xlink:href="#DejaVuSans-2e" x="63.623047"/>
       <use xlink:href="#DejaVuSans-30" x="95.410156"/>
       <use xlink:href="#DejaVuSans-32" x="159.033203"/>
       <use xlink:href="#DejaVuSans-35" x="222.65625"/>
      </g>
     </g>
    </g>
    <g id="ytick_7">
     <g id="line2d_27">
      <path d="M 57.6 77.76 
L 414.72 77.76 
" clip-path="url(#p7337430fff)" style="fill: none; stroke: #b0b0b0; stroke-width: 0.8; stroke-linecap: square"/>
     </g>
     <g id="line2d_28">
      <g>
       <use xlink:href="#m1ca894c6bf" x="57.6" y="77.76" style="stroke: #000000; stroke-width: 0.8"/>
      </g>
     </g>
     <g id="text_15">
      <!-- 0.030 -->
      <g transform="translate(21.971875 81.559219) scale(0.1 -0.1)">
       <defs>
        <path id="DejaVuSans-33" d="M 2597 2516 
Q 3050 2419 3304 2112 
Q 3559 1806 3559 1356 
Q 3559 666 3084 287 
Q 2609 -91 1734 -91 
Q 1441 -91 1130 -33 
Q 819 25 488 141 
L 488 750 
Q 750 597 1062 519 
Q 1375 441 1716 441 
Q 2309 441 2620 675 
Q 2931 909 2931 1356 
Q 2931 1769 2642 2001 
Q 2353 2234 1838 2234 
L 1294 2234 
L 1294 2753 
L 1863 2753 
Q 2328 2753 2575 2939 
Q 2822 3125 2822 3475 
Q 2822 3834 2567 4026 
Q 2313 4219 1838 4219 
Q 1578 4219 1281 4162 
Q 984 4106 628 3988 
L 628 4550 
Q 988 4650 1302 4700 
Q 1616 4750 1894 4750 
Q 2613 4750 3031 4423 
Q 3450 4097 3450 3541 
Q 3450 3153 3228 2886 
Q 3006 2619 2597 2516 
z
" transform="scale(0.015625)"/>
       </defs>
       <use xlink:href="#DejaVuSans-30"/>
       <use xlink:href="#DejaVuSans-2e" x="63.623047"/>
       <use xlink:href="#DejaVuSans-30" x="95.410156"/>
       <use xlink:href="#DejaVuSans-33" x="159.033203"/>
       <use xlink:href="#DejaVuSans-30" x="222.65625"/>
      </g>
     </g>
    </g>
    <g id="ytick_8">
     <g id="line2d_29">
      <path d="M 57.6 41.472 
L 414.72 41.472 
" clip-path="url(#p7337430fff)" style="fill: none; stroke: #b0b0b0; stroke-width: 0.8; stroke-linecap: square"/>
     </g>
     <g id="line2d_30">
      <g>
       <use xlink:href="#m1ca894c6bf" x="57.6" y="41.472" style="stroke: #000000; stroke-width: 0.8"/>
      </g>
     </g>
     <g id="text_16">
      <!-- 0.035 -->
      <g transform="translate(21.971875 45.271219) scale(0.1 -0.1)">
       <use xlink:href="#DejaVuSans-30"/>
       <use xlink:href="#DejaVuSans-2e" x="63.623047"/>
       <use xlink:href="#DejaVuSans-30" x="95.410156"/>
       <use xlink:href="#DejaVuSans-33" x="159.033203"/>
       <use xlink:href="#DejaVuSans-35" x="222.65625"/>
      </g>
     </g>
    </g>
    <g id="text_17">
     <!-- PDF -->
     <g transform="translate(15.892188 184.268625) rotate(-90) scale(0.1 -0.1)">
      <defs>
       <path id="DejaVuSans-44" d="M 1259 4147 
L 1259 519 
L 2022 519 
Q 2988 519 3436 956 
Q 3884 1394 3884 2338 
Q 3884 3275 3436 3711 
Q 2988 4147 2022 4147 
L 1259 4147 
z
M 628 4666 
L 1925 4666 
Q 3281 4666 3915 4102 
Q 4550 3538 4550 2338 
Q 4550 1131 3912 565 
Q 3275 0 1925 0 
L 628 0 
L 628 4666 
z
" transform="scale(0.015625)"/>
       <path id="DejaVuSans-46" d="M 628 4666 
L 3309 4666 
L 3309 4134 
L 1259 4134 
L 1259 2759 
L 3109 2759 
L 3109 2228 
L 1259 2228 
L 1259 0 
L 628 0 
L 628 4666 
z
" transform="scale(0.015625)"/>
      </defs>
      <use xlink:href="#DejaVuSans-50"/>
      <use xlink:href="#DejaVuSans-44" x="60.302734"/>
      <use xlink:href="#DejaVuSans-46" x="137.304688"/>
     </g>
    </g>
   </g>
   <g id="line2d_31">
    <path d="M 73.832727 293.0688 
L 77.112066 295.488 
L 80.391405 295.488 
L 83.670744 293.0688 
L 86.950083 295.488 
L 90.229421 295.488 
L 93.50876 295.488 
L 96.788099 295.488 
L 100.067438 295.488 
L 103.346777 295.488 
L 106.626116 295.488 
L 109.905455 295.488 
L 113.184793 295.488 
L 116.464132 293.0688 
L 119.743471 295.488 
L 123.02281 283.392 
L 126.302149 288.2304 
L 129.581488 293.0688 
L 132.860826 283.392 
L 136.140165 290.6496 
L 139.419504 283.392 
L 142.698843 278.5536 
L 145.978182 283.392 
L 149.257521 283.392 
L 152.53686 268.8768 
L 155.816198 271.296 
L 159.095537 268.8768 
L 162.374876 254.3616 
L 165.654215 266.4576 
L 168.933554 239.8464 
L 172.212893 242.2656 
L 175.492231 247.104 
L 178.77157 222.912 
L 182.050909 225.3312 
L 185.330248 203.5584 
L 188.609587 191.4624 
L 191.888926 160.0128 
L 195.168264 147.9168 
L 198.447603 126.144 
L 201.726942 169.6896 
L 205.006281 140.6592 
L 208.28562 116.4672 
L 211.564959 160.0128 
L 214.844298 138.24 
L 218.123636 99.5328 
L 221.402975 109.2096 
L 224.682314 87.4368 
L 227.961653 82.5984 
L 231.240992 94.6944 
L 234.520331 72.9216 
L 237.799669 94.6944 
L 241.079008 58.4064 
L 244.358347 53.568 
L 247.637686 63.2448 
L 250.917025 82.5984 
L 254.196364 126.144 
L 257.475702 87.4368 
L 260.755041 123.7248 
L 264.03438 118.8864 
L 267.313719 111.6288 
L 270.593058 85.0176 
L 273.872397 145.4976 
L 277.151736 106.7904 
L 280.431074 179.3664 
L 283.710413 155.1744 
L 286.989752 184.2048 
L 290.269091 164.8512 
L 293.54843 162.432 
L 296.827769 198.72 
L 300.107107 198.72 
L 303.386446 196.3008 
L 306.665785 208.3968 
L 309.945124 227.7504 
L 313.224463 235.008 
L 316.503802 242.2656 
L 319.78314 225.3312 
L 323.062479 254.3616 
L 326.341818 249.5232 
L 329.621157 266.4576 
L 332.900496 271.296 
L 336.179835 276.1344 
L 339.459174 280.9728 
L 342.738512 288.2304 
L 346.017851 285.8112 
L 349.29719 280.9728 
L 352.576529 293.0688 
L 355.855868 288.2304 
L 359.135207 290.6496 
L 362.414545 290.6496 
L 365.693884 290.6496 
L 368.973223 293.0688 
L 372.252562 295.488 
L 375.531901 293.0688 
L 378.81124 295.488 
L 382.090579 295.488 
L 385.369917 295.488 
L 388.649256 295.488 
L 391.928595 295.488 
L 395.207934 295.488 
L 398.487273 293.0688 
" clip-path="url(#p7337430fff)" style="fill: none; stroke: #1f77b4; stroke-width: 1.5; stroke-linecap: square"/>
    <defs>
     <path id="m13f1029624" d="M 0 1.5 
C 0.397805 1.5 0.77937 1.341951 1.06066 1.06066 
C 1.341951 0.77937 1.5 0.397805 1.5 0 
C 1.5 -0.397805 1.341951 -0.77937 1.06066 -1.06066 
C 0.77937 -1.341951 0.397805 -1.5 0 -1.5 
C -0.397805 -1.5 -0.77937 -1.341951 -1.06066 -1.06066 
C -1.341951 -0.77937 -1.5 -0.397805 -1.5 0 
C -1.5 0.397805 -1.341951 0.77937 -1.06066 1.06066 
C -0.77937 1.341951 -0.397805 1.5 0 1.5 
z
" style="stroke: #1f77b4"/>
    </defs>
    <g clip-path="url(#p7337430fff)">
     <use xlink:href="#m13f1029624" x="73.832727" y="293.0688" style="fill: #1f77b4; stroke: #1f77b4"/>
     <use xlink:href="#m13f1029624" x="77.112066" y="295.488" style="fill: #1f77b4; stroke: #1f77b4"/>
     <use xlink:href="#m13f1029624" x="80.391405" y="295.488" style="fill: #1f77b4; stroke: #1f77b4"/>
     <use xlink:href="#m13f1029624" x="83.670744" y="293.0688" style="fill: #1f77b4; stroke: #1f77b4"/>
     <use xlink:href="#m13f1029624" x="86.950083" y="295.488" style="fill: #1f77b4; stroke: #1f77b4"/>
     <use xlink:href="#m13f1029624" x="90.229421" y="295.488" style="fill: #1f77b4; stroke: #1f77b4"/>
     <use xlink:href="#m13f1029624" x="93.50876" y="295.488" style="fill: #1f77b4; stroke: #1f77b4"/>
     <use xlink:href="#m13f1029624" x="96.788099" y="295.488" style="fill: #1f77b4; stroke: #1f77b4"/>
     <use xlink:href="#m13f1029624" x="100.067438" y="295.488" style="fill: #1f77b4; stroke: #1f77b4"/>
     <use xlink:href="#m13f1029624" x="103.346777" y="295.488" style="fill: #1f77b4; stroke: #1f77b4"/>
     <use xlink:href="#m13f1029624" x="106.626116" y="295.488" style="fill: #1f77b4; stroke: #1f77b4"/>
     <use xlink:href="#m13f1029624" x="109.905455" y="295.488" style="fill: #1f77b4; stroke: #1f77b4"/>
     <use xlink:href="#m13f1029624" x="113.184793" y="295.488" style="fill: #1f77b4; stroke: #1f77b4"/>
     <use xlink:href="#m13f1029624" x="116.464132" y="293.0688" style="fill: #1f77b4; stroke: #1f77b4"/>
     <use xlink:href="#m13f1029624" x="119.743471" y="295.488" style="fill: #1f77b4; stroke: #1f77b4"/>
     <use xlink:href="#m13f1029624" x="123.02281" y="283.392" style="fill: #1f77b4; stroke: #1f77b4"/>
     <use xlink:href="#m13f1029624" x="126.302149" y="288.2304" style="fill: #1f77b4; stroke: #1f77b4"/>
     <use xlink:href="#m13f1029624" x="129.581488" y="293.0688" style="fill: #1f77b4; stroke: #1f77b4"/>
     <use xlink:href="#m13f1029624" x="132.860826" y="283.392" style="fill: #1f77b4; stroke: #1f77b4"/>
     <use xlink:href="#m13f1029624" x="136.140165" y="290.6496" style="fill: #1f77b4; stroke: #1f77b4"/>
     <use xlink:href="#m13f1029624" x="139.419504" y="283.392" style="fill: #1f77b4; stroke: #1f77b4"/>
     <use xlink:href="#m13f1029624" x="142.698843" y="278.5536" style="fill: #1f77b4; stroke: #1f77b4"/>
     <use xlink:href="#m13f1029624" x="145.978182" y="283.392" style="fill: #1f77b4; stroke: #1f77b4"/>
     <use xlink:href="#m13f1029624" x="149.257521" y="283.392" style="fill: #1f77b4; stroke: #1f77b4"/>
     <use xlink:href="#m13f1029624" x="152.53686" y="268.8768" style="fill: #1f77b4; stroke: #1f77b4"/>
     <use xlink:href="#m13f1029624" x="155.816198" y="271.296" style="fill: #1f77b4; stroke: #1f77b4"/>
     <use xlink:href="#m13f1029624" x="159.095537" y="268.8768" style="fill: #1f77b4; stroke: #1f77b4"/>
     <use xlink:href="#m13f1029624" x="162.374876" y="254.3616" style="fill: #1f77b4; stroke: #1f77b4"/>
     <use xlink:href="#m13f1029624" x="165.654215" y="266.4576" style="fill: #1f77b4; stroke: #1f77b4"/>
     <use xlink:href="#m13f1029624" x="168.933554" y="239.8464" style="fill: #1f77b4; stroke: #1f77b4"/>
     <use xlink:href="#m13f1029624" x="172.212893" y="242.2656" style="fill: #1f77b4; stroke: #1f77b4"/>
     <use xlink:href="#m13f1029624" x="175.492231" y="247.104" style="fill: #1f77b4; stroke: #1f77b4"/>
     <use xlink:href="#m13f1029624" x="178.77157" y="222.912" style="fill: #1f77b4; stroke: #1f77b4"/>
     <use xlink:href="#m13f1029624" x="182.050909" y="225.3312" style="fill: #1f77b4; stroke: #1f77b4"/>
     <use xlink:href="#m13f1029624" x="185.330248" y="203.5584" style="fill: #1f77b4; stroke: #1f77b4"/>
     <use xlink:href="#m13f1029624" x="188.609587" y="191.4624" style="fill: #1f77b4; stroke: #1f77b4"/>
     <use xlink:href="#m13f1029624" x="191.888926" y="160.0128" style="fill: #1f77b4; stroke: #1f77b4"/>
     <use xlink:href="#m13f1029624" x="195.168264" y="147.9168" style="fill: #1f77b4; stroke: #1f77b4"/>
     <use xlink:href="#m13f1029624" x="198.447603" y="126.144" style="fill: #1f77b4; stroke: #1f77b4"/>
     <use xlink:href="#m13f1029624" x="201.726942" y="169.6896" style="fill: #1f77b4; stroke: #1f77b4"/>
     <use xlink:href="#m13f1029624" x="205.006281" y="140.6592" style="fill: #1f77b4; stroke: #1f77b4"/>
     <use xlink:href="#m13f1029624" x="208.28562" y="116.4672" style="fill: #1f77b4; stroke: #1f77b4"/>
     <use xlink:href="#m13f1029624" x="211.564959" y="160.0128" style="fill: #1f77b4; stroke: #1f77b4"/>
     <use xlink:href="#m13f1029624" x="214.844298" y="138.24" style="fill: #1f77b4; stroke: #1f77b4"/>
     <use xlink:href="#m13f1029624" x="218.123636" y="99.5328" style="fill: #1f77b4; stroke: #1f77b4"/>
     <use xlink:href="#m13f1029624" x="221.402975" y="109.2096" style="fill: #1f77b4; stroke: #1f77b4"/>
     <use xlink:href="#m13f1029624" x="224.682314" y="87.4368" style="fill: #1f77b4; stroke: #1f77b4"/>
     <use xlink:href="#m13f1029624" x="227.961653" y="82.5984" style="fill: #1f77b4; stroke: #1f77b4"/>
     <use xlink:href="#m13f1029624" x="231.240992" y="94.6944" style="fill: #1f77b4; stroke: #1f77b4"/>
     <use xlink:href="#m13f1029624" x="234.520331" y="72.9216" style="fill: #1f77b4; stroke: #1f77b4"/>
     <use xlink:href="#m13f1029624" x="237.799669" y="94.6944" style="fill: #1f77b4; stroke: #1f77b4"/>
     <use xlink:href="#m13f1029624" x="241.079008" y="58.4064" style="fill: #1f77b4; stroke: #1f77b4"/>
     <use xlink:href="#m13f1029624" x="244.358347" y="53.568" style="fill: #1f77b4; stroke: #1f77b4"/>
     <use xlink:href="#m13f1029624" x="247.637686" y="63.2448" style="fill: #1f77b4; stroke: #1f77b4"/>
     <use xlink:href="#m13f1029624" x="250.917025" y="82.5984" style="fill: #1f77b4; stroke: #1f77b4"/>
     <use xlink:href="#m13f1029624" x="254.196364" y="126.144" style="fill: #1f77b4; stroke: #1f77b4"/>
     <use xlink:href="#m13f1029624" x="257.475702" y="87.4368" style="fill: #1f77b4; stroke: #1f77b4"/>
     <use xlink:href="#m13f1029624" x="260.755041" y="123.7248" style="fill: #1f77b4; stroke: #1f77b4"/>
     <use xlink:href="#m13f1029624" x="264.03438" y="118.8864" style="fill: #1f77b4; stroke: #1f77b4"/>
     <use xlink:href="#m13f1029624" x="267.313719" y="111.6288" style="fill: #1f77b4; stroke: #1f77b4"/>
     <use xlink:href="#m13f1029624" x="270.593058" y="85.0176" style="fill: #1f77b4; stroke: #1f77b4"/>
     <use xlink:href="#m13f1029624" x="273.872397" y="145.4976" style="fill: #1f77b4; stroke: #1f77b4"/>
     <use xlink:href="#m13f1029624" x="277.151736" y="106.7904" style="fill: #1f77b4; stroke: #1f77b4"/>
     <use xlink:href="#m13f1029624" x="280.431074" y="179.3664" style="fill: #1f77b4; stroke: #1f77b4"/>
     <use xlink:href="#m13f1029624" x="283.710413" y="155.1744" style="fill: #1f77b4; stroke: #1f77b4"/>
     <use xlink:href="#m13f1029624" x="286.989752" y="184.2048" style="fill: #1f77b4; stroke: #1f77b4"/>
     <use xlink:href="#m13f1029624" x="290.269091" y="164.8512" style="fill: #1f77b4; stroke: #1f77b4"/>
     <use xlink:href="#m13f1029624" x="293.54843" y="162.432" style="fill: #1f77b4; stroke: #1f77b4"/>
     <use xlink:href="#m13f1029624" x="296.827769" y="198.72" style="fill: #1f77b4; stroke: #1f77b4"/>
     <use xlink:href="#m13f1029624" x="300.107107" y="198.72" style="fill: #1f77b4; stroke: #1f77b4"/>
     <use xlink:href="#m13f1029624" x="303.386446" y="196.3008" style="fill: #1f77b4; stroke: #1f77b4"/>
     <use xlink:href="#m13f1029624" x="306.665785" y="208.3968" style="fill: #1f77b4; stroke: #1f77b4"/>
     <use xlink:href="#m13f1029624" x="309.945124" y="227.7504" style="fill: #1f77b4; stroke: #1f77b4"/>
     <use xlink:href="#m13f1029624" x="313.224463" y="235.008" style="fill: #1f77b4; stroke: #1f77b4"/>
     <use xlink:href="#m13f1029624" x="316.503802" y="242.2656" style="fill: #1f77b4; stroke: #1f77b4"/>
     <use xlink:href="#m13f1029624" x="319.78314" y="225.3312" style="fill: #1f77b4; stroke: #1f77b4"/>
     <use xlink:href="#m13f1029624" x="323.062479" y="254.3616" style="fill: #1f77b4; stroke: #1f77b4"/>
     <use xlink:href="#m13f1029624" x="326.341818" y="249.5232" style="fill: #1f77b4; stroke: #1f77b4"/>
     <use xlink:href="#m13f1029624" x="329.621157" y="266.4576" style="fill: #1f77b4; stroke: #1f77b4"/>
     <use xlink:href="#m13f1029624" x="332.900496" y="271.296" style="fill: #1f77b4; stroke: #1f77b4"/>
     <use xlink:href="#m13f1029624" x="336.179835" y="276.1344" style="fill: #1f77b4; stroke: #1f77b4"/>
     <use xlink:href="#m13f1029624" x="339.459174" y="280.9728" style="fill: #1f77b4; stroke: #1f77b4"/>
     <use xlink:href="#m13f1029624" x="342.738512" y="288.2304" style="fill: #1f77b4; stroke: #1f77b4"/>
     <use xlink:href="#m13f1029624" x="346.017851" y="285.8112" style="fill: #1f77b4; stroke: #1f77b4"/>
     <use xlink:href="#m13f1029624" x="349.29719" y="280.9728" style="fill: #1f77b4; stroke: #1f77b4"/>
     <use xlink:href="#m13f1029624" x="352.576529" y="293.0688" style="fill: #1f77b4; stroke: #1f77b4"/>
     <use xlink:href="#m13f1029624" x="355.855868" y="288.2304" style="fill: #1f77b4; stroke: #1f77b4"/>
     <use xlink:href="#m13f1029624" x="359.135207" y="290.6496" style="fill: #1f77b4; stroke: #1f77b4"/>
     <use xlink:href="#m13f1029624" x="362.414545" y="290.6496" style="fill: #1f77b4; stroke: #1f77b4"/>
     <use xlink:href="#m13f1029624" x="365.693884" y="290.6496" style="fill: #1f77b4; stroke: #1f77b4"/>
     <use xlink:href="#m13f1029624" x="368.973223" y="293.0688" style="fill: #1f77b4; stroke: #1f77b4"/>
     <use xlink:href="#m13f1029624" x="372.252562" y="295.488" style="fill: #1f77b4; stroke: #1f77b4"/>
     <use xlink:href="#m13f1029624" x="375.531901" y="293.0688" style="fill: #1f77b4; stroke: #1f77b4"/>
     <use xlink:href="#m13f1029624" x="378.81124" y="295.488" style="fill: #1f77b4; stroke: #1f77b4"/>
     <use xlink:href="#m13f1029624" x="382.090579" y="295.488" style="fill: #1f77b4; stroke: #1f77b4"/>
     <use xlink:href="#m13f1029624" x="385.369917" y="295.488" style="fill: #1f77b4; stroke: #1f77b4"/>
     <use xlink:href="#m13f1029624" x="388.649256" y="295.488" style="fill: #1f77b4; stroke: #1f77b4"/>
     <use xlink:href="#m13f1029624" x="391.928595" y="295.488" style="fill: #1f77b4; stroke: #1f77b4"/>
     <use xlink:href="#m13f1029624" x="395.207934" y="295.488" style="fill: #1f77b4; stroke: #1f77b4"/>
     <use xlink:href="#m13f1029624" x="398.487273" y="293.0688" style="fill: #1f77b4; stroke: #1f77b4"/>
    </g>
   </g>
   <g id="patch_3">
    <path d="M 57.6 307.584 
L 57.6 41.472 
" style="fill: none; stroke: #000000; stroke-width: 0.8; stroke-linejoin: miter; stroke-linecap: square"/>
   </g>
   <g id="patch_4">
    <path d="M 414.72 307.584 
L 414.72 41.472 
" style="fill: none; stroke: #000000; stroke-width: 0.8; stroke-linejoin: miter; stroke-linecap: square"/>
   </g>
   <g id="patch_5">
    <path d="M 57.6 307.584 
L 414.72 307.584 
" style="fill: none; stroke: #000000; stroke-width: 0.8; stroke-linejoin: miter; stroke-linecap: square"/>
   </g>
   <g id="patch_6">
    <path d="M 57.6 41.472 
L 414.72 41.472 
" style="fill: none; stroke: #000000; stroke-width: 0.8; stroke-linejoin: miter; stroke-linecap: square"/>
   </g>
   <g id="text_18">
    <!-- Probability Density Function (PDF) -->
    <g transform="translate(134.025937 35.472) scale(0.12 -0.12)">
     <defs>
      <path id="DejaVuSans-72" d="M 2631 2963 
Q 2534 3019 2420 3045 
Q 2306 3072 2169 3072 
Q 1681 3072 1420 2755 
Q 1159 2438 1159 1844 
L 1159 0 
L 581 0 
L 581 3500 
L 1159 3500 
L 1159 2956 
Q 1341 3275 1631 3429 
Q 1922 3584 2338 3584 
Q 2397 3584 2469 3576 
Q 2541 3569 2628 3553 
L 2631 2963 
z
" transform="scale(0.015625)"/>
      <path id="DejaVuSans-6f" d="M 1959 3097 
Q 1497 3097 1228 2736 
Q 959 2375 959 1747 
Q 959 1119 1226 758 
Q 1494 397 1959 397 
Q 2419 397 2687 759 
Q 2956 1122 2956 1747 
Q 2956 2369 2687 2733 
Q 2419 3097 1959 3097 
z
M 1959 3584 
Q 2709 3584 3137 3096 
Q 3566 2609 3566 1747 
Q 3566 888 3137 398 
Q 2709 -91 1959 -91 
Q 1206 -91 779 398 
Q 353 888 353 1747 
Q 353 2609 779 3096 
Q 1206 3584 1959 3584 
z
" transform="scale(0.015625)"/>
      <path id="DejaVuSans-62" d="M 3116 1747 
Q 3116 2381 2855 2742 
Q 2594 3103 2138 3103 
Q 1681 3103 1420 2742 
Q 1159 2381 1159 1747 
Q 1159 1113 1420 752 
Q 1681 391 2138 391 
Q 2594 391 2855 752 
Q 3116 1113 3116 1747 
z
M 1159 2969 
Q 1341 3281 1617 3432 
Q 1894 3584 2278 3584 
Q 2916 3584 3314 3078 
Q 3713 2572 3713 1747 
Q 3713 922 3314 415 
Q 2916 -91 2278 -91 
Q 1894 -91 1617 61 
Q 1341 213 1159 525 
L 1159 0 
L 581 0 
L 581 4863 
L 1159 4863 
L 1159 2969 
z
" transform="scale(0.015625)"/>
      <path id="DejaVuSans-74" d="M 1172 4494 
L 1172 3500 
L 2356 3500 
L 2356 3053 
L 1172 3053 
L 1172 1153 
Q 1172 725 1289 603 
Q 1406 481 1766 481 
L 2356 481 
L 2356 0 
L 1766 0 
Q 1100 0 847 248 
Q 594 497 594 1153 
L 594 3053 
L 172 3053 
L 172 3500 
L 594 3500 
L 594 4494 
L 1172 4494 
z
" transform="scale(0.015625)"/>
      <path id="DejaVuSans-79" d="M 2059 -325 
Q 1816 -950 1584 -1140 
Q 1353 -1331 966 -1331 
L 506 -1331 
L 506 -850 
L 844 -850 
Q 1081 -850 1212 -737 
Q 1344 -625 1503 -206 
L 1606 56 
L 191 3500 
L 800 3500 
L 1894 763 
L 2988 3500 
L 3597 3500 
L 2059 -325 
z
" transform="scale(0.015625)"/>
      <path id="DejaVuSans-6e" d="M 3513 2113 
L 3513 0 
L 2938 0 
L 2938 2094 
Q 2938 2591 2744 2837 
Q 2550 3084 2163 3084 
Q 1697 3084 1428 2787 
Q 1159 2491 1159 1978 
L 1159 0 
L 581 0 
L 581 3500 
L 1159 3500 
L 1159 2956 
Q 1366 3272 1645 3428 
Q 1925 3584 2291 3584 
Q 2894 3584 3203 3211 
Q 3513 2838 3513 2113 
z
" transform="scale(0.015625)"/>
      <path id="DejaVuSans-73" d="M 2834 3397 
L 2834 2853 
Q 2591 2978 2328 3040 
Q 2066 3103 1784 3103 
Q 1356 3103 1142 2972 
Q 928 2841 928 2578 
Q 928 2378 1081 2264 
Q 1234 2150 1697 2047 
L 1894 2003 
Q 2506 1872 2764 1633 
Q 3022 1394 3022 966 
Q 3022 478 2636 193 
Q 2250 -91 1575 -91 
Q 1294 -91 989 -36 
Q 684 19 347 128 
L 347 722 
Q 666 556 975 473 
Q 1284 391 1588 391 
Q 1994 391 2212 530 
Q 2431 669 2431 922 
Q 2431 1156 2273 1281 
Q 2116 1406 1581 1522 
L 1381 1569 
Q 847 1681 609 1914 
Q 372 2147 372 2553 
Q 372 3047 722 3315 
Q 1072 3584 1716 3584 
Q 2034 3584 2315 3537 
Q 2597 3491 2834 3397 
z
" transform="scale(0.015625)"/>
      <path id="DejaVuSans-63" d="M 3122 3366 
L 3122 2828 
Q 2878 2963 2633 3030 
Q 2388 3097 2138 3097 
Q 1578 3097 1268 2742 
Q 959 2388 959 1747 
Q 959 1106 1268 751 
Q 1578 397 2138 397 
Q 2388 397 2633 464 
Q 2878 531 3122 666 
L 3122 134 
Q 2881 22 2623 -34 
Q 2366 -91 2075 -91 
Q 1284 -91 818 406 
Q 353 903 353 1747 
Q 353 2603 823 3093 
Q 1294 3584 2113 3584 
Q 2378 3584 2631 3529 
Q 2884 3475 3122 3366 
z
" transform="scale(0.015625)"/>
     </defs>
     <use xlink:href="#DejaVuSans-50"/>
     <use xlink:href="#DejaVuSans-72" x="58.552734"/>
     <use xlink:href="#DejaVuSans-6f" x="97.416016"/>
     <use xlink:href="#DejaVuSans-62" x="158.597656"/>
     <use xlink:href="#DejaVuSans-61" x="222.074219"/>
     <use xlink:href="#DejaVuSans-62" x="283.353516"/>
     <use xlink:href="#DejaVuSans-69" x="346.830078"/>
     <use xlink:href="#DejaVuSans-6c" x="374.613281"/>
     <use xlink:href="#DejaVuSans-69" x="402.396484"/>
     <use xlink:href="#DejaVuSans-74" x="430.179688"/>
     <use xlink:href="#DejaVuSans-79" x="469.388672"/>
     <use xlink:href="#DejaVuSans-20" x="528.568359"/>
     <use xlink:href="#DejaVuSans-44" x="560.355469"/>
     <use xlink:href="#DejaVuSans-65" x="637.357422"/>
     <use xlink:href="#DejaVuSans-6e" x="698.880859"/>
     <use xlink:href="#DejaVuSans-73" x="762.259766"/>
     <use xlink:href="#DejaVuSans-69" x="814.359375"/>
     <use xlink:href="#DejaVuSans-74" x="842.142578"/>
     <use xlink:href="#DejaVuSans-79" x="881.351562"/>
     <use xlink:href="#DejaVuSans-20" x="940.53125"/>
     <use xlink:href="#DejaVuSans-46" x="972.318359"/>
     <use xlink:href="#DejaVuSans-75" x="1024.337891"/>
     <use xlink:href="#DejaVuSans-6e" x="1087.716797"/>
     <use xlink:href="#DejaVuSans-63" x="1151.095703"/>
     <use xlink:href="#DejaVuSans-74" x="1206.076172"/>
     <use xlink:href="#DejaVuSans-69" x="1245.285156"/>
     <use xlink:href="#DejaVuSans-6f" x="1273.068359"/>
     <use xlink:href="#DejaVuSans-6e" x="1334.25"/>
     <use xlink:href="#DejaVuSans-20" x="1397.628906"/>
     <use xlink:href="#DejaVuSans-28" x="1429.416016"/>
     <use xlink:href="#DejaVuSans-50" x="1468.429688"/>
     <use xlink:href="#DejaVuSans-44" x="1528.732422"/>
     <use xlink:href="#DejaVuSans-46" x="1605.734375"/>
     <use xlink:href="#DejaVuSans-29" x="1663.253906"/>
    </g>
   </g>
  </g>
 </g>
 <defs>
  <clipPath id="p7337430fff">
   <rect x="57.6" y="41.472" width="357.12" height="266.112"/>
  </clipPath>
 </defs>
</svg>
