<?xml version="1.0" encoding="utf-8" standalone="no"?>
<!DOCTYPE svg PUBLIC "-//W3C//DTD SVG 1.1//EN"
  "http://www.w3.org/Graphics/SVG/1.1/DTD/svg11.dtd">
<svg xmlns:xlink="http://www.w3.org/1999/xlink" width="460.8pt" height="345.6pt" viewBox="0 0 460.8 345.6" xmlns="http://www.w3.org/2000/svg" version="1.1">
 <metadata>
  <rdf:RDF xmlns:dc="http://purl.org/dc/elements/1.1/" xmlns:cc="http://creativecommons.org/ns#" xmlns:rdf="http://www.w3.org/1999/02/22-rdf-syntax-ns#">
   <cc:Work>
    <dc:type rdf:resource="http://purl.org/dc/dcmitype/StillImage"/>
    <dc:date>2024-09-06T16:27:16.690689</dc:date>
    <dc:format>image/svg+xml</dc:format>
    <dc:creator>
     <cc:Agent>
      <dc:title>Matplotlib v3.9.2, https://matplotlib.org/</dc:title>
     </cc:Agent>
    </dc:creator>
   </cc:Work>
  </rdf:RDF>
 </metadata>
 <defs>
  <style type="text/css">*{stroke-linejoin: round; stroke-linecap: butt}</style>
 </defs>
 <g id="figure_1">
  <g id="patch_1">
   <path d="M 0 345.6 
L 460.8 345.6 
L 460.8 0 
L 0 0 
z
" style="fill: #ffffff"/>
  </g>
  <g id="axes_1">
   <g id="patch_2">
    <path d="M 57.6 307.584 
L 414.72 307.584 
L 414.72 41.472 
L 57.6 41.472 
z
" style="fill: #ffffff"/>
   </g>
   <g id="matplotlib.axis_1">
    <g id="xtick_1">
     <g id="line2d_1">
      <path d="M 73.832727 307.584 
L 73.832727 41.472 
" clip-path="url(#pe706468bb3)" style="fill: none; stroke: #b0b0b0; stroke-width: 0.8; stroke-linecap: square"/>
     </g>
     <g id="line2d_2">
      <defs>
       <path id="m29f78bfaea" d="M 0 0 
L 0 3.5 
" style="stroke: #000000; stroke-width: 0.8"/>
      </defs>
      <g>
       <use xlink:href="#m29f78bfaea" x="73.832727" y="307.584" style="stroke: #000000; stroke-width: 0.8"/>
      </g>
     </g>
     <g id="text_1">
      <!-- 0 -->
      <g transform="translate(70.651477 322.182437) scale(0.1 -0.1)">
       <defs>
        <path id="DejaVuSans-30" d="M 2034 4250 
Q 1547 4250 1301 3770 
Q 1056 3291 1056 2328 
Q 1056 1369 1301 889 
Q 1547 409 2034 409 
Q 2525 409 2770 889 
Q 3016 1369 3016 2328 
Q 3016 3291 2770 3770 
Q 2525 4250 2034 4250 
z
M 2034 4750 
Q 2819 4750 3233 4129 
Q 3647 3509 3647 2328 
Q 3647 1150 3233 529 
Q 2819 -91 2034 -91 
Q 1250 -91 836 529 
Q 422 1150 422 2328 
Q 422 3509 836 4129 
Q 1250 4750 2034 4750 
z
" transform="scale(0.015625)"/>
       </defs>
       <use xlink:href="#DejaVuSans-30"/>
      </g>
     </g>
    </g>
    <g id="xtick_2">
     <g id="line2d_3">
      <path d="M 138.763636 307.584 
L 138.763636 41.472 
" clip-path="url(#pe706468bb3)" style="fill: none; stroke: #b0b0b0; stroke-width: 0.8; stroke-linecap: square"/>
     </g>
     <g id="line2d_4">
      <g>
       <use xlink:href="#m29f78bfaea" x="138.763636" y="307.584" style="stroke: #000000; stroke-width: 0.8"/>
      </g>
     </g>
     <g id="text_2">
      <!-- 20 -->
      <g transform="translate(132.401136 322.182437) scale(0.1 -0.1)">
       <defs>
        <path id="DejaVuSans-32" d="M 1228 531 
L 3431 531 
L 3431 0 
L 469 0 
L 469 531 
Q 828 903 1448 1529 
Q 2069 2156 2228 2338 
Q 2531 2678 2651 2914 
Q 2772 3150 2772 3378 
Q 2772 3750 2511 3984 
Q 2250 4219 1831 4219 
Q 1534 4219 1204 4116 
Q 875 4013 500 3803 
L 500 4441 
Q 881 4594 1212 4672 
Q 1544 4750 1819 4750 
Q 2544 4750 2975 4387 
Q 3406 4025 3406 3419 
Q 3406 3131 3298 2873 
Q 3191 2616 2906 2266 
Q 2828 2175 2409 1742 
Q 1991 1309 1228 531 
z
" transform="scale(0.015625)"/>
       </defs>
       <use xlink:href="#DejaVuSans-32"/>
       <use xlink:href="#DejaVuSans-30" x="63.623047"/>
      </g>
     </g>
    </g>
    <g id="xtick_3">
     <g id="line2d_5">
      <path d="M 203.694545 307.584 
L 203.694545 41.472 
" clip-path="url(#pe706468bb3)" style="fill: none; stroke: #b0b0b0; stroke-width: 0.8; stroke-linecap: square"/>
     </g>
     <g id="line2d_6">
      <g>
       <use xlink:href="#m29f78bfaea" x="203.694545" y="307.584" style="stroke: #000000; stroke-width: 0.8"/>
      </g>
     </g>
     <g id="text_3">
      <!-- 40 -->
      <g transform="translate(197.332045 322.182437) scale(0.1 -0.1)">
       <defs>
        <path id="DejaVuSans-34" d="M 2419 4116 
L 825 1625 
L 2419 1625 
L 2419 4116 
z
M 2253 4666 
L 3047 4666 
L 3047 1625 
L 3713 1625 
L 3713 1100 
L 3047 1100 
L 3047 0 
L 2419 0 
L 2419 1100 
L 313 1100 
L 313 1709 
L 2253 4666 
z
" transform="scale(0.015625)"/>
       </defs>
       <use xlink:href="#DejaVuSans-34"/>
       <use xlink:href="#DejaVuSans-30" x="63.623047"/>
      </g>
     </g>
    </g>
    <g id="xtick_4">
     <g id="line2d_7">
      <path d="M 268.625455 307.584 
L 268.625455 41.472 
" clip-path="url(#pe706468bb3)" style="fill: none; stroke: #b0b0b0; stroke-width: 0.8; stroke-linecap: square"/>
     </g>
     <g id="line2d_8">
      <g>
       <use xlink:href="#m29f78bfaea" x="268.625455" y="307.584" style="stroke: #000000; stroke-width: 0.8"/>
      </g>
     </g>
     <g id="text_4">
      <!-- 60 -->
      <g transform="translate(262.262955 322.182437) scale(0.1 -0.1)">
       <defs>
        <path id="DejaVuSans-36" d="M 2113 2584 
Q 1688 2584 1439 2293 
Q 1191 2003 1191 1497 
Q 1191 994 1439 701 
Q 1688 409 2113 409 
Q 2538 409 2786 701 
Q 3034 994 3034 1497 
Q 3034 2003 2786 2293 
Q 2538 2584 2113 2584 
z
M 3366 4563 
L 3366 3988 
Q 3128 4100 2886 4159 
Q 2644 4219 2406 4219 
Q 1781 4219 1451 3797 
Q 1122 3375 1075 2522 
Q 1259 2794 1537 2939 
Q 1816 3084 2150 3084 
Q 2853 3084 3261 2657 
Q 3669 2231 3669 1497 
Q 3669 778 3244 343 
Q 2819 -91 2113 -91 
Q 1303 -91 875 529 
Q 447 1150 447 2328 
Q 447 3434 972 4092 
Q 1497 4750 2381 4750 
Q 2619 4750 2861 4703 
Q 3103 4656 3366 4563 
z
" transform="scale(0.015625)"/>
       </defs>
       <use xlink:href="#DejaVuSans-36"/>
       <use xlink:href="#DejaVuSans-30" x="63.623047"/>
      </g>
     </g>
    </g>
    <g id="xtick_5">
     <g id="line2d_9">
      <path d="M 333.556364 307.584 
L 333.556364 41.472 
" clip-path="url(#pe706468bb3)" style="fill: none; stroke: #b0b0b0; stroke-width: 0.8; stroke-linecap: square"/>
     </g>
     <g id="line2d_10">
      <g>
       <use xlink:href="#m29f78bfaea" x="333.556364" y="307.584" style="stroke: #000000; stroke-width: 0.8"/>
      </g>
     </g>
     <g id="text_5">
      <!-- 80 -->
      <g transform="translate(327.193864 322.182437) scale(0.1 -0.1)">
       <defs>
        <path id="DejaVuSans-38" d="M 2034 2216 
Q 1584 2216 1326 1975 
Q 1069 1734 1069 1313 
Q 1069 891 1326 650 
Q 1584 409 2034 409 
Q 2484 409 2743 651 
Q 3003 894 3003 1313 
Q 3003 1734 2745 1975 
Q 2488 2216 2034 2216 
z
M 1403 2484 
Q 997 2584 770 2862 
Q 544 3141 544 3541 
Q 544 4100 942 4425 
Q 1341 4750 2034 4750 
Q 2731 4750 3128 4425 
Q 3525 4100 3525 3541 
Q 3525 3141 3298 2862 
Q 3072 2584 2669 2484 
Q 3125 2378 3379 2068 
Q 3634 1759 3634 1313 
Q 3634 634 3220 271 
Q 2806 -91 2034 -91 
Q 1263 -91 848 271 
Q 434 634 434 1313 
Q 434 1759 690 2068 
Q 947 2378 1403 2484 
z
M 1172 3481 
Q 1172 3119 1398 2916 
Q 1625 2713 2034 2713 
Q 2441 2713 2670 2916 
Q 2900 3119 2900 3481 
Q 2900 3844 2670 4047 
Q 2441 4250 2034 4250 
Q 1625 4250 1398 4047 
Q 1172 3844 1172 3481 
z
" transform="scale(0.015625)"/>
       </defs>
       <use xlink:href="#DejaVuSans-38"/>
       <use xlink:href="#DejaVuSans-30" x="63.623047"/>
      </g>
     </g>
    </g>
    <g id="xtick_6">
     <g id="line2d_11">
      <path d="M 398.487273 307.584 
L 398.487273 41.472 
" clip-path="url(#pe706468bb3)" style="fill: none; stroke: #b0b0b0; stroke-width: 0.8; stroke-linecap: square"/>
     </g>
     <g id="line2d_12">
      <g>
       <use xlink:href="#m29f78bfaea" x="398.487273" y="307.584" style="stroke: #000000; stroke-width: 0.8"/>
      </g>
     </g>
     <g id="text_6">
      <!-- 100 -->
      <g transform="translate(388.943523 322.182437) scale(0.1 -0.1)">
       <defs>
        <path id="DejaVuSans-31" d="M 794 531 
L 1825 531 
L 1825 4091 
L 703 3866 
L 703 4441 
L 1819 4666 
L 2450 4666 
L 2450 531 
L 3481 531 
L 3481 0 
L 794 0 
L 794 531 
z
" transform="scale(0.015625)"/>
       </defs>
       <use xlink:href="#DejaVuSans-31"/>
       <use xlink:href="#DejaVuSans-30" x="63.623047"/>
       <use xlink:href="#DejaVuSans-30" x="127.246094"/>
      </g>
     </g>
    </g>
    <g id="text_7">
     <!-- Penetration % -->
     <g transform="translate(201.007656 335.860562) scale(0.1 -0.1)">
      <defs>
       <path id="DejaVuSans-50" d="M 1259 4147 
L 1259 2394 
L 2053 2394 
Q 2494 2394 2734 2622 
Q 2975 2850 2975 3272 
Q 2975 3691 2734 3919 
Q 2494 4147 2053 4147 
L 1259 4147 
z
M 628 4666 
L 2053 4666 
Q 2838 4666 3239 4311 
Q 3641 3956 3641 3272 
Q 3641 2581 3239 2228 
Q 2838 1875 2053 1875 
L 1259 1875 
L 1259 0 
L 628 0 
L 628 4666 
z
" transform="scale(0.015625)"/>
       <path id="DejaVuSans-65" d="M 3597 1894 
L 3597 1613 
L 953 1613 
Q 991 1019 1311 708 
Q 1631 397 2203 397 
Q 2534 397 2845 478 
Q 3156 559 3463 722 
L 3463 178 
Q 3153 47 2828 -22 
Q 2503 -91 2169 -91 
Q 1331 -91 842 396 
Q 353 884 353 1716 
Q 353 2575 817 3079 
Q 1281 3584 2069 3584 
Q 2775 3584 3186 3129 
Q 3597 2675 3597 1894 
z
M 3022 2063 
Q 3016 2534 2758 2815 
Q 2500 3097 2075 3097 
Q 1594 3097 1305 2825 
Q 1016 2553 972 2059 
L 3022 2063 
z
" transform="scale(0.015625)"/>
       <path id="DejaVuSans-6e" d="M 3513 2113 
L 3513 0 
L 2938 0 
L 2938 2094 
Q 2938 2591 2744 2837 
Q 2550 3084 2163 3084 
Q 1697 3084 1428 2787 
Q 1159 2491 1159 1978 
L 1159 0 
L 581 0 
L 581 3500 
L 1159 3500 
L 1159 2956 
Q 1366 3272 1645 3428 
Q 1925 3584 2291 3584 
Q 2894 3584 3203 3211 
Q 3513 2838 3513 2113 
z
" transform="scale(0.015625)"/>
       <path id="DejaVuSans-74" d="M 1172 4494 
L 1172 3500 
L 2356 3500 
L 2356 3053 
L 1172 3053 
L 1172 1153 
Q 1172 725 1289 603 
Q 1406 481 1766 481 
L 2356 481 
L 2356 0 
L 1766 0 
Q 1100 0 847 248 
Q 594 497 594 1153 
L 594 3053 
L 172 3053 
L 172 3500 
L 594 3500 
L 594 4494 
L 1172 4494 
z
" transform="scale(0.015625)"/>
       <path id="DejaVuSans-72" d="M 2631 2963 
Q 2534 3019 2420 3045 
Q 2306 3072 2169 3072 
Q 1681 3072 1420 2755 
Q 1159 2438 1159 1844 
L 1159 0 
L 581 0 
L 581 3500 
L 1159 3500 
L 1159 2956 
Q 1341 3275 1631 3429 
Q 1922 3584 2338 3584 
Q 2397 3584 2469 3576 
Q 2541 3569 2628 3553 
L 2631 2963 
z
" transform="scale(0.015625)"/>
       <path id="DejaVuSans-61" d="M 2194 1759 
Q 1497 1759 1228 1600 
Q 959 1441 959 1056 
Q 959 750 1161 570 
Q 1363 391 1709 391 
Q 2188 391 2477 730 
Q 2766 1069 2766 1631 
L 2766 1759 
L 2194 1759 
z
M 3341 1997 
L 3341 0 
L 2766 0 
L 2766 531 
Q 2569 213 2275 61 
Q 1981 -91 1556 -91 
Q 1019 -91 701 211 
Q 384 513 384 1019 
Q 384 1609 779 1909 
Q 1175 2209 1959 2209 
L 2766 2209 
L 2766 2266 
Q 2766 2663 2505 2880 
Q 2244 3097 1772 3097 
Q 1472 3097 1187 3025 
Q 903 2953 641 2809 
L 641 3341 
Q 956 3463 1253 3523 
Q 1550 3584 1831 3584 
Q 2591 3584 2966 3190 
Q 3341 2797 3341 1997 
z
" transform="scale(0.015625)"/>
       <path id="DejaVuSans-69" d="M 603 3500 
L 1178 3500 
L 1178 0 
L 603 0 
L 603 3500 
z
M 603 4863 
L 1178 4863 
L 1178 4134 
L 603 4134 
L 603 4863 
z
" transform="scale(0.015625)"/>
       <path id="DejaVuSans-6f" d="M 1959 3097 
Q 1497 3097 1228 2736 
Q 959 2375 959 1747 
Q 959 1119 1226 758 
Q 1494 397 1959 397 
Q 2419 397 2687 759 
Q 2956 1122 2956 1747 
Q 2956 2369 2687 2733 
Q 2419 3097 1959 3097 
z
M 1959 3584 
Q 2709 3584 3137 3096 
Q 3566 2609 3566 1747 
Q 3566 888 3137 398 
Q 2709 -91 1959 -91 
Q 1206 -91 779 398 
Q 353 888 353 1747 
Q 353 2609 779 3096 
Q 1206 3584 1959 3584 
z
" transform="scale(0.015625)"/>
       <path id="DejaVuSans-20" transform="scale(0.015625)"/>
       <path id="DejaVuSans-25" d="M 4653 2053 
Q 4381 2053 4226 1822 
Q 4072 1591 4072 1178 
Q 4072 772 4226 539 
Q 4381 306 4653 306 
Q 4919 306 5073 539 
Q 5228 772 5228 1178 
Q 5228 1588 5073 1820 
Q 4919 2053 4653 2053 
z
M 4653 2450 
Q 5147 2450 5437 2106 
Q 5728 1763 5728 1178 
Q 5728 594 5436 251 
Q 5144 -91 4653 -91 
Q 4153 -91 3862 251 
Q 3572 594 3572 1178 
Q 3572 1766 3864 2108 
Q 4156 2450 4653 2450 
z
M 1428 4353 
Q 1159 4353 1004 4120 
Q 850 3888 850 3481 
Q 850 3069 1003 2837 
Q 1156 2606 1428 2606 
Q 1700 2606 1854 2837 
Q 2009 3069 2009 3481 
Q 2009 3884 1853 4118 
Q 1697 4353 1428 4353 
z
M 4250 4750 
L 4750 4750 
L 1831 -91 
L 1331 -91 
L 4250 4750 
z
M 1428 4750 
Q 1922 4750 2215 4408 
Q 2509 4066 2509 3481 
Q 2509 2891 2217 2550 
Q 1925 2209 1428 2209 
Q 931 2209 642 2551 
Q 353 2894 353 3481 
Q 353 4063 643 4406 
Q 934 4750 1428 4750 
z
" transform="scale(0.015625)"/>
      </defs>
      <use xlink:href="#DejaVuSans-50"/>
      <use xlink:href="#DejaVuSans-65" x="56.677734"/>
      <use xlink:href="#DejaVuSans-6e" x="118.201172"/>
      <use xlink:href="#DejaVuSans-65" x="181.580078"/>
      <use xlink:href="#DejaVuSans-74" x="243.103516"/>
      <use xlink:href="#DejaVuSans-72" x="282.3125"/>
      <use xlink:href="#DejaVuSans-61" x="323.425781"/>
      <use xlink:href="#DejaVuSans-74" x="384.705078"/>
      <use xlink:href="#DejaVuSans-69" x="423.914062"/>
      <use xlink:href="#DejaVuSans-6f" x="451.697266"/>
      <use xlink:href="#DejaVuSans-6e" x="512.878906"/>
      <use xlink:href="#DejaVuSans-20" x="576.257812"/>
      <use xlink:href="#DejaVuSans-25" x="608.044922"/>
     </g>
    </g>
   </g>
   <g id="matplotlib.axis_2">
    <g id="ytick_1">
     <g id="line2d_13">
      <path d="M 57.6 301.112376 
L 414.72 301.112376 
" clip-path="url(#pe706468bb3)" style="fill: none; stroke: #b0b0b0; stroke-width: 0.8; stroke-linecap: square"/>
     </g>
     <g id="line2d_14">
      <defs>
       <path id="m5436404517" d="M 0 0 
L -3.5 0 
" style="stroke: #000000; stroke-width: 0.8"/>
      </defs>
      <g>
       <use xlink:href="#m5436404517" x="57.6" y="301.112376" style="stroke: #000000; stroke-width: 0.8"/>
      </g>
     </g>
     <g id="text_8">
      <!-- −3000 -->
      <g transform="translate(16.770313 304.911595) scale(0.1 -0.1)">
       <defs>
        <path id="DejaVuSans-2212" d="M 678 2272 
L 4684 2272 
L 4684 1741 
L 678 1741 
L 678 2272 
z
" transform="scale(0.015625)"/>
        <path id="DejaVuSans-33" d="M 2597 2516 
Q 3050 2419 3304 2112 
Q 3559 1806 3559 1356 
Q 3559 666 3084 287 
Q 2609 -91 1734 -91 
Q 1441 -91 1130 -33 
Q 819 25 488 141 
L 488 750 
Q 750 597 1062 519 
Q 1375 441 1716 441 
Q 2309 441 2620 675 
Q 2931 909 2931 1356 
Q 2931 1769 2642 2001 
Q 2353 2234 1838 2234 
L 1294 2234 
L 1294 2753 
L 1863 2753 
Q 2328 2753 2575 2939 
Q 2822 3125 2822 3475 
Q 2822 3834 2567 4026 
Q 2313 4219 1838 4219 
Q 1578 4219 1281 4162 
Q 984 4106 628 3988 
L 628 4550 
Q 988 4650 1302 4700 
Q 1616 4750 1894 4750 
Q 2613 4750 3031 4423 
Q 3450 4097 3450 3541 
Q 3450 3153 3228 2886 
Q 3006 2619 2597 2516 
z
" transform="scale(0.015625)"/>
       </defs>
       <use xlink:href="#DejaVuSans-2212"/>
       <use xlink:href="#DejaVuSans-33" x="83.789062"/>
       <use xlink:href="#DejaVuSans-30" x="147.412109"/>
       <use xlink:href="#DejaVuSans-30" x="211.035156"/>
       <use xlink:href="#DejaVuSans-30" x="274.658203"/>
      </g>
     </g>
    </g>
    <g id="ytick_2">
     <g id="line2d_15">
      <path d="M 57.6 252.272711 
L 414.72 252.272711 
" clip-path="url(#pe706468bb3)" style="fill: none; stroke: #b0b0b0; stroke-width: 0.8; stroke-linecap: square"/>
     </g>
     <g id="line2d_16">
      <g>
       <use xlink:href="#m5436404517" x="57.6" y="252.272711" style="stroke: #000000; stroke-width: 0.8"/>
      </g>
     </g>
     <g id="text_9">
      <!-- −2000 -->
      <g transform="translate(16.770313 256.07193) scale(0.1 -0.1)">
       <use xlink:href="#DejaVuSans-2212"/>
       <use xlink:href="#DejaVuSans-32" x="83.789062"/>
       <use xlink:href="#DejaVuSans-30" x="147.412109"/>
       <use xlink:href="#DejaVuSans-30" x="211.035156"/>
       <use xlink:href="#DejaVuSans-30" x="274.658203"/>
      </g>
     </g>
    </g>
    <g id="ytick_3">
     <g id="line2d_17">
      <path d="M 57.6 203.433046 
L 414.72 203.433046 
" clip-path="url(#pe706468bb3)" style="fill: none; stroke: #b0b0b0; stroke-width: 0.8; stroke-linecap: square"/>
     </g>
     <g id="line2d_18">
      <g>
       <use xlink:href="#m5436404517" x="57.6" y="203.433046" style="stroke: #000000; stroke-width: 0.8"/>
      </g>
     </g>
     <g id="text_10">
      <!-- −1000 -->
      <g transform="translate(16.770313 207.232265) scale(0.1 -0.1)">
       <use xlink:href="#DejaVuSans-2212"/>
       <use xlink:href="#DejaVuSans-31" x="83.789062"/>
       <use xlink:href="#DejaVuSans-30" x="147.412109"/>
       <use xlink:href="#DejaVuSans-30" x="211.035156"/>
       <use xlink:href="#DejaVuSans-30" x="274.658203"/>
      </g>
     </g>
    </g>
    <g id="ytick_4">
     <g id="line2d_19">
      <path d="M 57.6 154.593382 
L 414.72 154.593382 
" clip-path="url(#pe706468bb3)" style="fill: none; stroke: #b0b0b0; stroke-width: 0.8; stroke-linecap: square"/>
     </g>
     <g id="line2d_20">
      <g>
       <use xlink:href="#m5436404517" x="57.6" y="154.593382" style="stroke: #000000; stroke-width: 0.8"/>
      </g>
     </g>
     <g id="text_11">
      <!-- 0 -->
      <g transform="translate(44.2375 158.3926) scale(0.1 -0.1)">
       <use xlink:href="#DejaVuSans-30"/>
      </g>
     </g>
    </g>
    <g id="ytick_5">
     <g id="line2d_21">
      <path d="M 57.6 105.753717 
L 414.72 105.753717 
" clip-path="url(#pe706468bb3)" style="fill: none; stroke: #b0b0b0; stroke-width: 0.8; stroke-linecap: square"/>
     </g>
     <g id="line2d_22">
      <g>
       <use xlink:href="#m5436404517" x="57.6" y="105.753717" style="stroke: #000000; stroke-width: 0.8"/>
      </g>
     </g>
     <g id="text_12">
      <!-- 1000 -->
      <g transform="translate(25.15 109.552936) scale(0.1 -0.1)">
       <use xlink:href="#DejaVuSans-31"/>
       <use xlink:href="#DejaVuSans-30" x="63.623047"/>
       <use xlink:href="#DejaVuSans-30" x="127.246094"/>
       <use xlink:href="#DejaVuSans-30" x="190.869141"/>
      </g>
     </g>
    </g>
    <g id="ytick_6">
     <g id="line2d_23">
      <path d="M 57.6 56.914052 
L 414.72 56.914052 
" clip-path="url(#pe706468bb3)" style="fill: none; stroke: #b0b0b0; stroke-width: 0.8; stroke-linecap: square"/>
     </g>
     <g id="line2d_24">
      <g>
       <use xlink:href="#m5436404517" x="57.6" y="56.914052" style="stroke: #000000; stroke-width: 0.8"/>
      </g>
     </g>
     <g id="text_13">
      <!-- 2000 -->
      <g transform="translate(25.15 60.713271) scale(0.1 -0.1)">
       <use xlink:href="#DejaVuSans-32"/>
       <use xlink:href="#DejaVuSans-30" x="63.623047"/>
       <use xlink:href="#DejaVuSans-30" x="127.246094"/>
       <use xlink:href="#DejaVuSans-30" x="190.869141"/>
      </g>
     </g>
    </g>
    <g id="text_14">
     <!-- NPV (€ mil) -->
     <g transform="translate(10.690625 202.613156) rotate(-90) scale(0.1 -0.1)">
      <defs>
       <path id="DejaVuSans-4e" d="M 628 4666 
L 1478 4666 
L 3547 763 
L 3547 4666 
L 4159 4666 
L 4159 0 
L 3309 0 
L 1241 3903 
L 1241 0 
L 628 0 
L 628 4666 
z
" transform="scale(0.015625)"/>
       <path id="DejaVuSans-56" d="M 1831 0 
L 50 4666 
L 709 4666 
L 2188 738 
L 3669 4666 
L 4325 4666 
L 2547 0 
L 1831 0 
z
" transform="scale(0.015625)"/>
       <path id="DejaVuSans-28" d="M 1984 4856 
Q 1566 4138 1362 3434 
Q 1159 2731 1159 2009 
Q 1159 1288 1364 580 
Q 1569 -128 1984 -844 
L 1484 -844 
Q 1016 -109 783 600 
Q 550 1309 550 2009 
Q 550 2706 781 3412 
Q 1013 4119 1484 4856 
L 1984 4856 
z
" transform="scale(0.015625)"/>
       <path id="DejaVuSans-20ac" d="M 3647 4306 
L 3647 3641 
Q 3363 3969 3098 4109 
Q 2834 4250 2516 4250 
Q 2025 4250 1709 3937 
Q 1394 3625 1294 3041 
L 3097 3041 
L 2925 2656 
L 1244 2656 
Q 1238 2581 1236 2509 
Q 1234 2438 1234 2328 
Q 1234 2228 1236 2156 
Q 1238 2084 1244 2009 
L 2638 2009 
L 2463 1625 
L 1294 1625 
Q 1394 1041 1709 725 
Q 2025 409 2516 409 
Q 2834 409 3098 550 
Q 3363 691 3647 1019 
L 3647 359 
Q 3369 134 3080 21 
Q 2791 -91 2491 -91 
Q 1750 -91 1267 362 
Q 784 816 659 1625 
L 0 1625 
L 172 2009 
L 606 2009 
Q 606 2081 604 2154 
Q 603 2228 603 2328 
Q 603 2438 604 2511 
Q 606 2584 606 2656 
L 0 2656 
L 172 3041 
L 659 3041 
Q 784 3844 1268 4297 
Q 1753 4750 2491 4750 
Q 2797 4750 3086 4639 
Q 3375 4528 3647 4306 
z
" transform="scale(0.015625)"/>
       <path id="DejaVuSans-6d" d="M 3328 2828 
Q 3544 3216 3844 3400 
Q 4144 3584 4550 3584 
Q 5097 3584 5394 3201 
Q 5691 2819 5691 2113 
L 5691 0 
L 5113 0 
L 5113 2094 
Q 5113 2597 4934 2840 
Q 4756 3084 4391 3084 
Q 3944 3084 3684 2787 
Q 3425 2491 3425 1978 
L 3425 0 
L 2847 0 
L 2847 2094 
Q 2847 2600 2669 2842 
Q 2491 3084 2119 3084 
Q 1678 3084 1418 2786 
Q 1159 2488 1159 1978 
L 1159 0 
L 581 0 
L 581 3500 
L 1159 3500 
L 1159 2956 
Q 1356 3278 1631 3431 
Q 1906 3584 2284 3584 
Q 2666 3584 2933 3390 
Q 3200 3197 3328 2828 
z
" transform="scale(0.015625)"/>
       <path id="DejaVuSans-6c" d="M 603 4863 
L 1178 4863 
L 1178 0 
L 603 0 
L 603 4863 
z
" transform="scale(0.015625)"/>
       <path id="DejaVuSans-29" d="M 513 4856 
L 1013 4856 
Q 1481 4119 1714 3412 
Q 1947 2706 1947 2009 
Q 1947 1309 1714 600 
Q 1481 -109 1013 -844 
L 513 -844 
Q 928 -128 1133 580 
Q 1338 1288 1338 2009 
Q 1338 2731 1133 3434 
Q 928 4138 513 4856 
z
" transform="scale(0.015625)"/>
      </defs>
      <use xlink:href="#DejaVuSans-4e"/>
      <use xlink:href="#DejaVuSans-50" x="74.804688"/>
      <use xlink:href="#DejaVuSans-56" x="135.107422"/>
      <use xlink:href="#DejaVuSans-20" x="203.515625"/>
      <use xlink:href="#DejaVuSans-28" x="235.302734"/>
      <use xlink:href="#DejaVuSans-20ac" x="274.316406"/>
      <use xlink:href="#DejaVuSans-20" x="337.939453"/>
      <use xlink:href="#DejaVuSans-6d" x="369.726562"/>
      <use xlink:href="#DejaVuSans-69" x="467.138672"/>
      <use xlink:href="#DejaVuSans-6c" x="494.921875"/>
      <use xlink:href="#DejaVuSans-29" x="522.705078"/>
     </g>
    </g>
   </g>
   <g id="line2d_25">
    <path d="M 73.832727 295.488 
L 77.079273 292.603267 
L 80.325818 289.718534 
L 83.572364 286.833802 
L 86.818909 283.949069 
L 90.065455 281.064336 
L 93.312 278.179603 
L 96.558545 275.29487 
L 99.805091 272.410137 
L 103.051636 269.525405 
L 106.298182 266.640672 
L 109.544727 263.755939 
L 112.791273 260.871206 
L 116.037818 257.986473 
L 119.284364 255.10174 
L 122.530909 252.217008 
L 125.777455 249.332275 
L 129.024 246.447542 
L 132.270545 243.562809 
L 135.517091 240.678076 
L 138.763636 237.793343 
L 142.010182 234.960068 
L 145.256727 232.263243 
L 148.503273 229.595685 
L 151.749818 226.928126 
L 154.996364 224.260568 
L 158.242909 221.593009 
L 161.489455 218.925451 
L 164.736 216.257892 
L 167.982545 213.590334 
L 171.229091 210.922775 
L 174.475636 208.298394 
L 177.722182 205.729765 
L 180.968727 203.206616 
L 184.215273 200.73099 
L 187.461818 198.291885 
L 190.708364 195.903693 
L 193.954909 193.533144 
L 197.201455 191.227149 
L 200.448 188.921154 
L 203.694545 186.682504 
L 206.941091 184.453783 
L 210.187636 182.225062 
L 213.434182 179.996341 
L 216.680727 177.767621 
L 219.927273 175.5389 
L 223.173818 173.310179 
L 226.420364 171.081458 
L 229.666909 168.852738 
L 232.913455 166.624017 
L 236.16 164.395296 
L 239.406545 162.166575 
L 242.653091 159.937855 
L 245.899636 157.709134 
L 249.146182 155.480413 
L 252.392727 153.251692 
L 255.639273 151.022972 
L 258.885818 148.794251 
L 262.132364 146.56553 
L 265.378909 144.336809 
L 268.625455 142.108089 
L 271.872 139.879368 
L 275.118545 137.650647 
L 278.365091 135.421926 
L 281.611636 133.193206 
L 284.858182 130.964485 
L 288.104727 128.735764 
L 291.351273 126.507043 
L 294.597818 124.278323 
L 297.844364 122.049602 
L 301.090909 119.820881 
L 304.337455 117.59216 
L 307.584 115.363439 
L 310.830545 113.134719 
L 314.077091 110.905998 
L 317.323636 108.677277 
L 320.570182 106.448556 
L 323.816727 104.219836 
L 327.063273 101.991115 
L 330.309818 99.762394 
L 333.556364 97.533673 
L 336.802909 95.304953 
L 340.049455 93.076232 
L 343.296 90.847511 
L 346.542545 88.646351 
L 349.789091 86.453954 
L 353.035636 84.261557 
L 356.282182 82.06916 
L 359.528727 79.876763 
L 362.775273 77.684366 
L 366.021818 75.491969 
L 369.268364 73.299573 
L 372.514909 71.107176 
L 375.761455 68.914779 
L 379.008 66.722382 
L 382.254545 64.529985 
L 385.501091 62.337588 
L 388.747636 60.145191 
L 391.994182 57.952794 
L 395.240727 55.760397 
L 398.487273 53.568 
" clip-path="url(#pe706468bb3)" style="fill: none; stroke: #008000; stroke-width: 1.5; stroke-linecap: square"/>
   </g>
   <g id="line2d_26">
    <path d="M 73.832727 273.407675 
L 77.079273 271.185632 
L 80.325818 268.96359 
L 83.572364 266.741548 
L 86.818909 264.519506 
L 90.065455 262.297463 
L 93.312 260.075421 
L 96.558545 257.853379 
L 99.805091 255.631337 
L 103.051636 253.409294 
L 106.298182 251.187252 
L 109.544727 248.96521 
L 112.791273 246.743168 
L 116.037818 244.521125 
L 119.284364 242.299083 
L 122.530909 240.077041 
L 125.777455 237.854998 
L 129.024 235.632956 
L 132.270545 233.410914 
L 135.517091 231.188872 
L 138.763636 228.966829 
L 142.010182 226.780106 
L 145.256727 224.689039 
L 148.503273 222.61883 
L 151.749818 220.548622 
L 154.996364 218.478413 
L 158.242909 216.408204 
L 161.489455 214.337995 
L 164.736 212.267786 
L 167.982545 210.197577 
L 171.229091 208.127368 
L 174.475636 206.089112 
L 177.722182 204.092114 
L 180.968727 202.130063 
L 184.215273 200.20453 
L 187.461818 198.308136 
L 190.708364 196.452364 
L 193.954909 194.611209 
L 197.201455 192.823536 
L 200.448 191.035862 
L 203.694545 189.306123 
L 206.941091 187.584925 
L 210.187636 185.863726 
L 213.434182 184.142528 
L 216.680727 182.42133 
L 219.927273 180.700132 
L 223.173818 178.978934 
L 226.420364 177.257736 
L 229.666909 175.536538 
L 232.913455 173.81534 
L 236.16 172.094142 
L 239.406545 170.372944 
L 242.653091 168.651746 
L 245.899636 166.930548 
L 249.146182 165.20935 
L 252.392727 163.488152 
L 255.639273 161.766954 
L 258.885818 160.045756 
L 262.132364 158.324558 
L 265.378909 156.60336 
L 268.625455 154.882162 
L 271.872 153.160964 
L 275.118545 151.439766 
L 278.365091 149.718568 
L 281.611636 147.99737 
L 284.858182 146.276172 
L 288.104727 144.554974 
L 291.351273 142.833776 
L 294.597818 141.112578 
L 297.844364 139.39138 
L 301.090909 137.670182 
L 304.337455 135.948984 
L 307.584 134.227785 
L 310.830545 132.506587 
L 314.077091 130.785389 
L 317.323636 129.064191 
L 320.570182 127.342993 
L 323.816727 125.621795 
L 327.063273 123.900597 
L 330.309818 122.179399 
L 333.556364 120.458201 
L 336.802909 118.737003 
L 340.049455 117.015805 
L 343.296 115.294607 
L 346.542545 113.598028 
L 349.789091 111.909275 
L 353.035636 110.220523 
L 356.282182 108.531771 
L 359.528727 106.843019 
L 362.775273 105.154267 
L 366.021818 103.465515 
L 369.268364 101.776763 
L 372.514909 100.088011 
L 375.761455 98.399259 
L 379.008 96.710506 
L 382.254545 95.021754 
L 385.501091 93.333002 
L 388.747636 91.64425 
L 391.994182 89.955498 
L 395.240727 88.266746 
L 398.487273 86.577994 
" clip-path="url(#pe706468bb3)" style="fill: none; stroke: #ffa500; stroke-width: 1.5; stroke-linecap: square"/>
   </g>
   <g id="line2d_27">
    <path d="M 73.832727 271.086612 
L 77.079273 268.934241 
L 80.325818 266.781871 
L 83.572364 264.629501 
L 86.818909 262.477131 
L 90.065455 260.324761 
L 93.312 258.17239 
L 96.558545 256.02002 
L 99.805091 253.86765 
L 103.051636 251.71528 
L 106.298182 249.562909 
L 109.544727 247.410539 
L 112.791273 245.258169 
L 116.037818 243.105799 
L 119.284364 240.953428 
L 122.530909 238.801058 
L 125.777455 236.648688 
L 129.024 234.496318 
L 132.270545 232.343947 
L 135.517091 230.191577 
L 138.763636 228.039207 
L 142.010182 225.920548 
L 145.256727 223.893431 
L 148.503273 221.886315 
L 151.749818 219.879199 
L 154.996364 217.872084 
L 158.242909 215.864968 
L 161.489455 213.857853 
L 164.736 211.850737 
L 167.982545 209.843621 
L 171.229091 207.836506 
L 174.475636 205.860173 
L 177.722182 203.92359 
L 180.968727 202.020831 
L 184.215273 200.153419 
L 187.461818 198.314342 
L 190.708364 196.514767 
L 193.954909 194.729473 
L 197.201455 192.996428 
L 200.448 191.263384 
L 203.694545 189.587203 
L 206.941091 187.919406 
L 210.187636 186.251609 
L 213.434182 184.583812 
L 216.680727 182.916015 
L 219.927273 181.248219 
L 223.173818 179.580422 
L 226.420364 177.912625 
L 229.666909 176.244828 
L 232.913455 174.577031 
L 236.16 172.909234 
L 239.406545 171.241437 
L 242.653091 169.573641 
L 245.899636 167.905844 
L 249.146182 166.238047 
L 252.392727 164.57025 
L 255.639273 162.902453 
L 258.885818 161.234656 
L 262.132364 159.566859 
L 265.378909 157.899062 
L 268.625455 156.231266 
L 271.872 154.563469 
L 275.118545 152.895672 
L 278.365091 151.227875 
L 281.611636 149.560078 
L 284.858182 147.892281 
L 288.104727 146.224484 
L 291.351273 144.556688 
L 294.597818 142.888891 
L 297.844364 141.221094 
L 301.090909 139.553297 
L 304.337455 137.8855 
L 307.584 136.217703 
L 310.830545 134.549906 
L 314.077091 132.882109 
L 317.323636 131.214313 
L 320.570182 129.546516 
L 323.816727 127.878719 
L 327.063273 126.210922 
L 330.309818 124.543125 
L 333.556364 122.875328 
L 336.802909 121.207531 
L 340.049455 119.539735 
L 343.296 117.871938 
L 346.542545 116.228418 
L 349.789091 114.592616 
L 353.035636 112.956815 
L 356.282182 111.321013 
L 359.528727 109.685212 
L 362.775273 108.049411 
L 366.021818 106.413609 
L 369.268364 104.777808 
L 372.514909 103.142006 
L 375.761455 101.506205 
L 379.008 99.870404 
L 382.254545 98.234602 
L 385.501091 96.598801 
L 388.747636 94.963 
L 391.994182 93.327198 
L 395.240727 91.691397 
L 398.487273 90.055595 
" clip-path="url(#pe706468bb3)" style="fill: none; stroke-dasharray: 5.55,2.4; stroke-dashoffset: 0; stroke: #ffa500; stroke-width: 1.5"/>
   </g>
   <g id="line2d_28">
    <path d="M 73.832727 257.295078 
L 77.079273 255.556277 
L 80.325818 253.817476 
L 83.572364 252.078675 
L 86.818909 250.339875 
L 90.065455 248.601074 
L 93.312 246.862273 
L 96.558545 245.123472 
L 99.805091 243.384671 
L 103.051636 241.64587 
L 106.298182 239.907069 
L 109.544727 238.168268 
L 112.791273 236.429467 
L 116.037818 234.690667 
L 119.284364 232.951866 
L 122.530909 231.213065 
L 125.777455 229.474264 
L 129.024 227.735463 
L 132.270545 225.996662 
L 135.517091 224.257861 
L 138.763636 222.51906 
L 142.010182 220.804835 
L 145.256727 219.158559 
L 148.503273 217.527333 
L 151.749818 215.896106 
L 154.996364 214.26488 
L 158.242909 212.633654 
L 161.489455 211.002427 
L 164.736 209.371201 
L 167.982545 207.739975 
L 171.229091 206.108748 
L 174.475636 204.501428 
L 177.722182 202.924974 
L 180.968727 201.375633 
L 184.215273 199.854621 
L 187.461818 198.35705 
L 190.708364 196.892158 
L 193.954909 195.439458 
L 197.201455 194.03137 
L 200.448 192.623281 
L 203.694545 191.265304 
L 206.941091 189.914714 
L 210.187636 188.564124 
L 213.434182 187.213535 
L 216.680727 185.862945 
L 219.927273 184.512355 
L 223.173818 183.161766 
L 226.420364 181.811176 
L 229.666909 180.460587 
L 232.913455 179.109997 
L 236.16 177.759407 
L 239.406545 176.408818 
L 242.653091 175.058228 
L 245.899636 173.707638 
L 249.146182 172.357049 
L 252.392727 171.006459 
L 255.639273 169.655869 
L 258.885818 168.30528 
L 262.132364 166.95469 
L 265.378909 165.604101 
L 268.625455 164.253511 
L 271.872 162.902921 
L 275.118545 161.552332 
L 278.365091 160.201742 
L 281.611636 158.851152 
L 284.858182 157.500563 
L 288.104727 156.149973 
L 291.351273 154.799383 
L 294.597818 153.448794 
L 297.844364 152.098204 
L 301.090909 150.747615 
L 304.337455 149.397025 
L 307.584 148.046435 
L 310.830545 146.695846 
L 314.077091 145.345256 
L 317.323636 143.994666 
L 320.570182 142.644077 
L 323.816727 141.293487 
L 327.063273 139.942897 
L 330.309818 138.592308 
L 333.556364 137.241718 
L 336.802909 135.891129 
L 340.049455 134.540539 
L 343.296 133.189949 
L 346.542545 131.86144 
L 349.789091 130.539951 
L 353.035636 129.218463 
L 356.282182 127.896974 
L 359.528727 126.575485 
L 362.775273 125.253997 
L 366.021818 123.932508 
L 369.268364 122.611019 
L 372.514909 121.289531 
L 375.761455 119.968042 
L 379.008 118.646553 
L 382.254545 117.325065 
L 385.501091 116.003576 
L 388.747636 114.682087 
L 391.994182 113.360599 
L 395.240727 112.03911 
L 398.487273 110.717621 
" clip-path="url(#pe706468bb3)" style="fill: none; stroke: #ff0000; stroke-width: 1.5; stroke-linecap: square"/>
   </g>
   <g id="line2d_29">
    <path d="M 57.6 154.593382 
L 414.72 154.593382 
" clip-path="url(#pe706468bb3)" style="fill: none; stroke: #000000; stroke-width: 1.5; stroke-linecap: square"/>
   </g>
   <g id="patch_3">
    <path d="M 57.6 307.584 
L 57.6 41.472 
" style="fill: none; stroke: #000000; stroke-width: 0.8; stroke-linejoin: miter; stroke-linecap: square"/>
   </g>
   <g id="patch_4">
    <path d="M 414.72 307.584 
L 414.72 41.472 
" style="fill: none; stroke: #000000; stroke-width: 0.8; stroke-linejoin: miter; stroke-linecap: square"/>
   </g>
   <g id="patch_5">
    <path d="M 57.6 307.584 
L 414.72 307.584 
" style="fill: none; stroke: #000000; stroke-width: 0.8; stroke-linejoin: miter; stroke-linecap: square"/>
   </g>
   <g id="patch_6">
    <path d="M 57.6 41.472 
L 414.72 41.472 
" style="fill: none; stroke: #000000; stroke-width: 0.8; stroke-linejoin: miter; stroke-linecap: square"/>
   </g>
   <g id="legend_1">
    <g id="patch_7">
     <path d="M 64.6 108.1845 
L 179.7 108.1845 
Q 181.7 108.1845 181.7 106.1845 
L 181.7 48.472 
Q 181.7 46.472 179.7 46.472 
L 64.6 46.472 
Q 62.6 46.472 62.6 48.472 
L 62.6 106.1845 
Q 62.6 108.1845 64.6 108.1845 
z
" style="fill: #ffffff; opacity: 0.8; stroke: #cccccc; stroke-linejoin: miter"/>
    </g>
    <g id="line2d_30">
     <path d="M 66.6 54.570438 
L 76.6 54.570438 
L 86.6 54.570438 
" style="fill: none; stroke: #008000; stroke-width: 1.5; stroke-linecap: square"/>
    </g>
    <g id="text_15">
     <!-- $r_{\text{Grant}} = 0\%$ -->
     <g transform="translate(94.6 58.070438) scale(0.1 -0.1)">
      <defs>
       <path id="DejaVuSans-Oblique-72" d="M 2853 2969 
Q 2766 3016 2653 3041 
Q 2541 3066 2413 3066 
Q 1953 3066 1609 2717 
Q 1266 2369 1153 1784 
L 800 0 
L 225 0 
L 909 3500 
L 1484 3500 
L 1375 2956 
Q 1603 3259 1920 3421 
Q 2238 3584 2597 3584 
Q 2691 3584 2781 3573 
Q 2872 3563 2963 3538 
L 2853 2969 
z
" transform="scale(0.015625)"/>
       <path id="DejaVuSans-47" d="M 3809 666 
L 3809 1919 
L 2778 1919 
L 2778 2438 
L 4434 2438 
L 4434 434 
Q 4069 175 3628 42 
Q 3188 -91 2688 -91 
Q 1594 -91 976 548 
Q 359 1188 359 2328 
Q 359 3472 976 4111 
Q 1594 4750 2688 4750 
Q 3144 4750 3555 4637 
Q 3966 4525 4313 4306 
L 4313 3634 
Q 3963 3931 3569 4081 
Q 3175 4231 2741 4231 
Q 1884 4231 1454 3753 
Q 1025 3275 1025 2328 
Q 1025 1384 1454 906 
Q 1884 428 2741 428 
Q 3075 428 3337 486 
Q 3600 544 3809 666 
z
" transform="scale(0.015625)"/>
       <path id="DejaVuSans-3d" d="M 678 2906 
L 4684 2906 
L 4684 2381 
L 678 2381 
L 678 2906 
z
M 678 1631 
L 4684 1631 
L 4684 1100 
L 678 1100 
L 678 1631 
z
" transform="scale(0.015625)"/>
      </defs>
      <use xlink:href="#DejaVuSans-Oblique-72" transform="translate(0 0.78125)"/>
      <use xlink:href="#DejaVuSans-47" transform="translate(41.113281 -15.625) scale(0.7)"/>
      <use xlink:href="#DejaVuSans-72" transform="translate(95.356445 -15.625) scale(0.7)"/>
      <use xlink:href="#DejaVuSans-61" transform="translate(124.135742 -15.625) scale(0.7)"/>
      <use xlink:href="#DejaVuSans-6e" transform="translate(167.03125 -15.625) scale(0.7)"/>
      <use xlink:href="#DejaVuSans-74" transform="translate(211.396484 -15.625) scale(0.7)"/>
      <use xlink:href="#DejaVuSans-3d" transform="translate(261.05957 0.78125)"/>
      <use xlink:href="#DejaVuSans-30" transform="translate(364.331055 0.78125)"/>
      <use xlink:href="#DejaVuSans-25" transform="translate(427.954102 0.78125)"/>
     </g>
    </g>
    <g id="line2d_31">
     <path d="M 66.6 69.248563 
L 76.6 69.248563 
L 86.6 69.248563 
" style="fill: none; stroke: #ffa500; stroke-width: 1.5; stroke-linecap: square"/>
    </g>
    <g id="text_16">
     <!-- $r_{\text{Half}} = 3.84\%$ -->
     <g transform="translate(94.6 72.748563) scale(0.1 -0.1)">
      <defs>
       <path id="DejaVuSans-48" d="M 628 4666 
L 1259 4666 
L 1259 2753 
L 3553 2753 
L 3553 4666 
L 4184 4666 
L 4184 0 
L 3553 0 
L 3553 2222 
L 1259 2222 
L 1259 0 
L 628 0 
L 628 4666 
z
" transform="scale(0.015625)"/>
       <path id="DejaVuSans-66" d="M 2375 4863 
L 2375 4384 
L 1825 4384 
Q 1516 4384 1395 4259 
Q 1275 4134 1275 3809 
L 1275 3500 
L 2222 3500 
L 2222 3053 
L 1275 3053 
L 1275 0 
L 697 0 
L 697 3053 
L 147 3053 
L 147 3500 
L 697 3500 
L 697 3744 
Q 697 4328 969 4595 
Q 1241 4863 1831 4863 
L 2375 4863 
z
" transform="scale(0.015625)"/>
       <path id="DejaVuSans-2e" d="M 684 794 
L 1344 794 
L 1344 0 
L 684 0 
L 684 794 
z
" transform="scale(0.015625)"/>
      </defs>
      <use xlink:href="#DejaVuSans-Oblique-72" transform="translate(0 0.78125)"/>
      <use xlink:href="#DejaVuSans-48" transform="translate(41.113281 -15.625) scale(0.7)"/>
      <use xlink:href="#DejaVuSans-61" transform="translate(93.75 -15.625) scale(0.7)"/>
      <use xlink:href="#DejaVuSans-6c" transform="translate(136.645508 -15.625) scale(0.7)"/>
      <use xlink:href="#DejaVuSans-66" transform="translate(156.09375 -15.625) scale(0.7)"/>
      <use xlink:href="#DejaVuSans-3d" transform="translate(202.954102 0.78125)"/>
      <use xlink:href="#DejaVuSans-33" transform="translate(306.225586 0.78125)"/>
      <use xlink:href="#DejaVuSans-2e" transform="translate(369.848633 0.78125)"/>
      <use xlink:href="#DejaVuSans-38" transform="translate(399.010742 0.78125)"/>
      <use xlink:href="#DejaVuSans-34" transform="translate(462.633789 0.78125)"/>
      <use xlink:href="#DejaVuSans-25" transform="translate(526.256836 0.78125)"/>
     </g>
    </g>
    <g id="line2d_32">
     <path d="M 66.6 83.926688 
L 76.6 83.926688 
L 86.6 83.926688 
" style="fill: none; stroke-dasharray: 5.55,2.4; stroke-dashoffset: 0; stroke: #ffa500; stroke-width: 1.5"/>
    </g>
    <g id="text_17">
     <!-- $r_{\text{SES}} = 4.32\%$ -->
     <g transform="translate(94.6 87.426688) scale(0.1 -0.1)">
      <defs>
       <path id="DejaVuSans-53" d="M 3425 4513 
L 3425 3897 
Q 3066 4069 2747 4153 
Q 2428 4238 2131 4238 
Q 1616 4238 1336 4038 
Q 1056 3838 1056 3469 
Q 1056 3159 1242 3001 
Q 1428 2844 1947 2747 
L 2328 2669 
Q 3034 2534 3370 2195 
Q 3706 1856 3706 1288 
Q 3706 609 3251 259 
Q 2797 -91 1919 -91 
Q 1588 -91 1214 -16 
Q 841 59 441 206 
L 441 856 
Q 825 641 1194 531 
Q 1563 422 1919 422 
Q 2459 422 2753 634 
Q 3047 847 3047 1241 
Q 3047 1584 2836 1778 
Q 2625 1972 2144 2069 
L 1759 2144 
Q 1053 2284 737 2584 
Q 422 2884 422 3419 
Q 422 4038 858 4394 
Q 1294 4750 2059 4750 
Q 2388 4750 2728 4690 
Q 3069 4631 3425 4513 
z
" transform="scale(0.015625)"/>
       <path id="DejaVuSans-45" d="M 628 4666 
L 3578 4666 
L 3578 4134 
L 1259 4134 
L 1259 2753 
L 3481 2753 
L 3481 2222 
L 1259 2222 
L 1259 531 
L 3634 531 
L 3634 0 
L 628 0 
L 628 4666 
z
" transform="scale(0.015625)"/>
      </defs>
      <use xlink:href="#DejaVuSans-Oblique-72" transform="translate(0 0.78125)"/>
      <use xlink:href="#DejaVuSans-53" transform="translate(41.113281 -15.625) scale(0.7)"/>
      <use xlink:href="#DejaVuSans-45" transform="translate(85.546875 -15.625) scale(0.7)"/>
      <use xlink:href="#DejaVuSans-53" transform="translate(129.775391 -15.625) scale(0.7)"/>
      <use xlink:href="#DejaVuSans-3d" transform="translate(196.425781 0.78125)"/>
      <use xlink:href="#DejaVuSans-34" transform="translate(299.697266 0.78125)"/>
      <use xlink:href="#DejaVuSans-2e" transform="translate(363.320312 0.78125)"/>
      <use xlink:href="#DejaVuSans-33" transform="translate(395.107422 0.78125)"/>
      <use xlink:href="#DejaVuSans-32" transform="translate(458.730469 0.78125)"/>
      <use xlink:href="#DejaVuSans-25" transform="translate(522.353516 0.78125)"/>
     </g>
    </g>
    <g id="line2d_33">
     <path d="M 66.6 98.604813 
L 76.6 98.604813 
L 86.6 98.604813 
" style="fill: none; stroke: #ff0000; stroke-width: 1.5; stroke-linecap: square"/>
    </g>
    <g id="text_18">
     <!-- $r_{\text{PlanetLab}} = 7.67\%$ -->
     <g transform="translate(94.6 102.104813) scale(0.1 -0.1)">
      <defs>
       <path id="DejaVuSans-4c" d="M 628 4666 
L 1259 4666 
L 1259 531 
L 3531 531 
L 3531 0 
L 628 0 
L 628 4666 
z
" transform="scale(0.015625)"/>
       <path id="DejaVuSans-62" d="M 3116 1747 
Q 3116 2381 2855 2742 
Q 2594 3103 2138 3103 
Q 1681 3103 1420 2742 
Q 1159 2381 1159 1747 
Q 1159 1113 1420 752 
Q 1681 391 2138 391 
Q 2594 391 2855 752 
Q 3116 1113 3116 1747 
z
M 1159 2969 
Q 1341 3281 1617 3432 
Q 1894 3584 2278 3584 
Q 2916 3584 3314 3078 
Q 3713 2572 3713 1747 
Q 3713 922 3314 415 
Q 2916 -91 2278 -91 
Q 1894 -91 1617 61 
Q 1341 213 1159 525 
L 1159 0 
L 581 0 
L 581 4863 
L 1159 4863 
L 1159 2969 
z
" transform="scale(0.015625)"/>
       <path id="DejaVuSans-37" d="M 525 4666 
L 3525 4666 
L 3525 4397 
L 1831 0 
L 1172 0 
L 2766 4134 
L 525 4134 
L 525 4666 
z
" transform="scale(0.015625)"/>
      </defs>
      <use xlink:href="#DejaVuSans-Oblique-72" transform="translate(0 0.78125)"/>
      <use xlink:href="#DejaVuSans-50" transform="translate(41.113281 -15.625) scale(0.7)"/>
      <use xlink:href="#DejaVuSans-6c" transform="translate(83.325195 -15.625) scale(0.7)"/>
      <use xlink:href="#DejaVuSans-61" transform="translate(102.773438 -15.625) scale(0.7)"/>
      <use xlink:href="#DejaVuSans-6e" transform="translate(145.668945 -15.625) scale(0.7)"/>
      <use xlink:href="#DejaVuSans-65" transform="translate(190.03418 -15.625) scale(0.7)"/>
      <use xlink:href="#DejaVuSans-74" transform="translate(233.100586 -15.625) scale(0.7)"/>
      <use xlink:href="#DejaVuSans-4c" transform="translate(260.546875 -15.625) scale(0.7)"/>
      <use xlink:href="#DejaVuSans-61" transform="translate(299.545898 -15.625) scale(0.7)"/>
      <use xlink:href="#DejaVuSans-62" transform="translate(342.441406 -15.625) scale(0.7)"/>
      <use xlink:href="#DejaVuSans-3d" transform="translate(409.091797 0.78125)"/>
      <use xlink:href="#DejaVuSans-37" transform="translate(512.363281 0.78125)"/>
      <use xlink:href="#DejaVuSans-2e" transform="translate(575.986328 0.78125)"/>
      <use xlink:href="#DejaVuSans-36" transform="translate(607.773438 0.78125)"/>
      <use xlink:href="#DejaVuSans-37" transform="translate(671.396484 0.78125)"/>
      <use xlink:href="#DejaVuSans-25" transform="translate(735.019531 0.78125)"/>
     </g>
    </g>
   </g>
  </g>
 </g>
 <defs>
  <clipPath id="pe706468bb3">
   <rect x="57.6" y="41.472" width="357.12" height="266.112"/>
  </clipPath>
 </defs>
</svg>
